#N canvas 54 54 450 300 12;
#X obj 143 20 inlet;
#X obj 200 89 list length;
#X obj 143 166 list split;
#X obj 145 67 t l l;
#X obj 228 130 - 2;
#X obj 141 218 outlet;
#X connect 0 0 3 0;
#X connect 1 0 4 0;
#X connect 2 0 5 0;
#X connect 3 0 2 0;
#X connect 3 1 1 0;
#X connect 4 0 2 1;
