#N canvas 599 347 526 300 12;
#X obj 78 94 file mkdir;
#X obj 105 2 inlet;
#X obj 125 252 outlet;
#X obj 292 251 outlet;
#X obj 78 128 t b;
#X obj 144 205 t a a;
#X obj 285 203 t a a;
#X obj 364 254 print ERROR mkdir;
#X symbolatom 134 161 10 0 0 0 - - - 0;
#X symbolatom 229 159 10 0 0 0 - - - 0;
#X msg 194 82 set \$1;
#X obj 105 32 symbol;
#X obj 107 61 t s s;
#X obj 190 250 print mkdir;
#X connect 0 0 4 0;
#X connect 0 1 9 0;
#X connect 1 0 11 0;
#X connect 4 0 8 0;
#X connect 5 0 2 0;
#X connect 5 1 13 0;
#X connect 6 0 3 0;
#X connect 6 1 7 0;
#X connect 8 0 5 0;
#X connect 9 0 6 0;
#X connect 10 0 9 0;
#X connect 10 0 8 0;
#X connect 11 0 12 0;
#X connect 12 0 0 0;
#X connect 12 1 10 0;
