#N canvas 189 189 714 300 12;
#X obj 81 55 inlet;
#X msg 91 187 1;
#X msg 279 187 0;
#X obj 185 253 outlet;
#X obj 495 221 print ERROR INVALID BOOLEAN;
#X obj 83 104 route on yes true off no false;
#X connect 0 0 5 0;
#X connect 1 0 3 0;
#X connect 2 0 3 0;
#X connect 5 0 1 0;
#X connect 5 1 1 0;
#X connect 5 2 1 0;
#X connect 5 3 2 0;
#X connect 5 4 2 0;
#X connect 5 5 2 0;
#X connect 5 6 4 0;
