#N canvas 26 26 710 536 12;
#X obj 187 140 pdcontrol;
#X msg 192 99 dir 0;
#X obj 79 21 inlet;
#X obj 186 174 file split;
#X obj 330 86 unpack symbol float;
#X obj 329 477 outlet;
#X obj 329 425 file join;
#X obj 186 209 t l l;
#X obj 259 241 list length;
#X obj 192 53 t t l;
#X obj 316 329 list split;
#X obj 351 380 list append;
#X obj 316 288 +;
#X obj 426 130 - 1;
#X connect 0 0 3 0;
#X connect 1 0 0 0;
#X connect 2 0 9 0;
#X connect 3 0 7 0;
#X connect 4 0 11 1;
#X connect 4 1 13 0;
#X connect 6 0 5 0;
#X connect 7 0 10 0;
#X connect 7 1 8 0;
#X connect 8 0 12 0;
#X connect 9 0 1 0;
#X connect 9 1 4 0;
#X connect 10 0 11 0;
#X connect 11 0 6 0;
#X connect 12 0 10 1;
#X connect 13 0 12 1;
