#N canvas 68 106 989 601 12;
#X obj 582 37 inlet;
#X obj 747 34 inlet;
#X obj 824 36 inlet;
#X obj 890 37 inlet;
#X obj 582 326 bang;
#X msg 562 351 0;
#X msg 589 351 1;
#X obj 631 324 bang;
#X msg 617 351 0;
#X msg 645 351 1;
#X obj 681 325 bang;
#X msg 672 351 0;
#X msg 699 351 1;
#X obj 750 369 spigot;
#X obj 797 369 spigot;
#X obj 844 369 spigot;
#X text 578 14 select;
#X text 752 9 red;
#X text 822 11 green;
#X text 894 11 blue;
#X obj 890 165 t b f;
#X obj 824 216 +;
#X obj 824 241 t b f;
#X obj 824 272 +;
#X obj 513 236 loadbang;
#X obj 582 191 route back front label bang;
#X obj 828 418 f;
#X obj 781 417 f;
#X obj 734 417 f;
#X obj 747 135 * -65536;
#X obj 824 136 * -256;
#X obj 889 137 * -1;
#X obj 824 303 - 1;
#X obj 720 224 t b b b b;
#X obj 750 447 pack f f f;
#X obj 751 480 outlet;
#X text 21 12 Convert RGB colors values into PD canvas colors. Adapted from: https://forum.pdpatchrepo.info/uploads/files/1460458656715-colours.pd For context see: https://forum.pdpatchrepo.info/topic/9965/canvas-colors;
#X text 26 124 Scale multipliers used to brighten the UI LEDs: otherwise the VU meter is a bit dim on the SW GUI.;
#N canvas 108 108 985 536 scale 0;
#X obj 133 68 inlet;
#X obj 132 150 min 255;
#X obj 131 98 * 2.55;
#X obj 131 125 int;
#X obj 131 181 outlet;
#X connect 0 0 2 0;
#X connect 1 0 4 0;
#X connect 2 0 3 0;
#X connect 3 0 1 0;
#X restore 747 79 pd scale;
#N canvas 108 108 985 536 scale 0;
#X obj 133 68 inlet;
#X obj 132 150 min 255;
#X obj 131 98 * 2.55;
#X obj 131 125 int;
#X obj 131 181 outlet;
#X connect 0 0 2 0;
#X connect 1 0 4 0;
#X connect 2 0 3 0;
#X connect 3 0 1 0;
#X restore 819 79 pd scale;
#N canvas 108 108 985 536 scale 0;
#X obj 133 68 inlet;
#X obj 132 150 min 255;
#X obj 131 98 * 2.55;
#X obj 131 125 int;
#X obj 131 181 outlet;
#X connect 0 0 2 0;
#X connect 1 0 4 0;
#X connect 2 0 3 0;
#X connect 3 0 1 0;
#X restore 892 78 pd scale;
#X connect 0 0 25 0;
#X connect 1 0 38 0;
#X connect 2 0 39 0;
#X connect 3 0 40 0;
#X connect 4 0 5 0;
#X connect 4 0 6 0;
#X connect 5 0 14 1;
#X connect 5 0 15 1;
#X connect 6 0 13 1;
#X connect 7 0 8 0;
#X connect 7 0 9 0;
#X connect 8 0 13 1;
#X connect 8 0 15 1;
#X connect 9 0 14 1;
#X connect 10 0 11 0;
#X connect 10 0 12 0;
#X connect 11 0 13 1;
#X connect 11 0 14 1;
#X connect 12 0 15 1;
#X connect 13 0 28 1;
#X connect 14 0 27 1;
#X connect 15 0 26 1;
#X connect 20 0 21 0;
#X connect 20 1 21 1;
#X connect 21 0 22 0;
#X connect 22 0 23 0;
#X connect 22 1 23 1;
#X connect 23 0 32 0;
#X connect 24 0 6 0;
#X connect 25 0 4 0;
#X connect 25 1 7 0;
#X connect 25 2 10 0;
#X connect 25 3 33 0;
#X connect 26 0 34 2;
#X connect 27 0 34 1;
#X connect 28 0 34 0;
#X connect 29 0 23 0;
#X connect 30 0 21 0;
#X connect 31 0 20 0;
#X connect 32 0 15 0;
#X connect 32 0 14 0;
#X connect 32 0 13 0;
#X connect 33 0 28 0;
#X connect 33 1 27 0;
#X connect 33 2 26 0;
#X connect 33 3 32 0;
#X connect 34 0 35 0;
#X connect 38 0 29 0;
#X connect 39 0 30 0;
#X connect 40 0 31 0;
