#N canvas 108 108 523 443 12;
#X obj 59 10 inlet;
#X obj 93 166 file glob;
#X obj 67 324 outlet;
#X obj 89 122 trackpath *;
#X msg 291 163 1;
#X msg 92 208 0;
#X obj 68 260 int;
#X obj 61 53 t b a b;
#X text 261 48 Returns 1 is the song designated \; by the inlet argument is empty \; and 0 otherwise.;
#X connect 0 0 7 0;
#X connect 1 0 5 0;
#X connect 3 0 1 0;
#X connect 4 0 6 1;
#X connect 5 0 6 1;
#X connect 6 0 2 0;
#X connect 7 0 6 0;
#X connect 7 1 3 0;
#X connect 7 2 4 0;
