#N canvas 0 0 1284 760 10;
#X msg 371 541 start;
#X obj 49 209 inlet~;
#X obj 361 135 r t\$1rec;
#X obj 525 525 pack s s;
#X obj 518 439 v cursong;
#X obj 573 492 symbol \$1.wav;
#X obj 368 274 t b b;
#X text 407 384 this ensures recorded track lines up with playing tracks, f 16;
#X obj 359 197 t b b;
#X obj 159 231 r t\$1stop;
#X msg 125 524 0;
#X obj 263 215 r stop-all;
#X obj 348 431 delay 15;
#X msg 1017 434 1;
#X msg 854 449 0;
#X obj 1017 404 delay 5;
#X obj 1209 736 spigot;
#X msg 838 339 0;
#X msg 1112 430 1;
#X obj 1309 512 sig~;
#X obj 1304 539 lop~ 10;
#X obj 1026 659 *~;
#X obj 1243 -60 r t\$1play;
#X obj 1312 447 r t\$1_vol;
#X obj 1205 763 s t\$1play;
#X obj 1070 814 outlet~;
#X obj 815 227 r t\$1stop;
#X obj 835 252 r stop-all;
#X msg 1286 -7 0;
#X msg 227 532 stop;
#X obj 499 642 print t\$1-rec;
#X obj 1112 402 delay 90;
#X obj 279 566 line~;
#X obj 1312 471 t f f;
#X obj 1312 492 *;
#X msg 272 533 0 5;
#X msg 312 535 1 5;
#X obj 405 -37 sel 0 1;
#X obj 405 -113 v rec-en;
#X obj 406 -84 == \$1;
#X obj 405 -152 r start-all;
#X obj 425 -10 s t\$1rec;
#X obj 404 17 s t\$1play;
#X obj 602 76 s rec-en;
#X obj 525 -48 t b b b b;
#X obj 516 60 s reled;
#X msg 601 53 0;
#X obj 534 9 delay 100;
#X obj 617 -18 s t\$1stop;
#X obj 534 34 s t\$1play;
#X obj 601 5 v rec-en;
#X obj 601 29 == \$1;
#X obj 527 -144 r stop-recording-and-play;
#X obj 721 61 s reled;
#X obj 743 38 s t\$1rec;
#X obj 727 -76 v rec-en;
#X obj 727 -52 == \$1;
#X obj 725 -29 sel 1;
#X obj 724 -8 t b b b;
#X obj 723 -148 r stop-playing-and-record;
#X obj 1207 686 spigot;
#X obj 1273 608 r loop-en;
#X obj 57 -71 loadbang;
#X obj 57 -19 v t\$1status;
#X obj 1307 745 s t\$1done-playing;
#X obj 1426 772 v t\$1status;
#X msg 1426 745 0;
#X msg 599 351 2;
#X obj 599 383 s t\$1status;
#X obj 124 550 s t\$1status;
#X obj 1296 686 spigot;
#X obj 1312 653 == 0;
#X obj 1273 629 t a a;
#X obj 1192 643 t b b;
#X obj 1339 710 t b b;
#X obj 527 -113 v t\$1status;
#X obj 726 -126 v t\$1status;
#X obj 528 -84 sel 2;
#X text 802 -100 or if already stopped bc there is no file yet;
#X msg 57 -47 0;
#X obj 1157 583 spigot;
#X text 141 -60 track status is 0: stopped \, 1 playing \, 2 recording, f 28;
#X msg 308 385 stop;
#X msg 1029 331 stop;
#X obj 294 603 *~;
#X obj 255 641 *~;
#X obj 342 495 t b b;
#X obj 231 399 delay 6;
#X obj 726 -103 sel 1 0;
#X obj 769 16 s t\$1stop-play;
#X obj 780 203 r t\$1stop-play;
#X obj 529 396 t b b;
#X obj 221 187 r stop-all-recordings;
#X obj 1112 460 s \$0-loop-en;
#X obj 1276 61 s \$0-loop-en;
#X obj 836 362 s \$0-loop-en;
#X obj 1234 713 r \$0-loop-en;
#X obj 1294 34 s t\$1status;
#X obj 1028 307 r \$0-cancel-play;
#X obj 870 343 s \$0-cancel-play;
#X obj 1214 513 r t\$1status;
#X obj 1212 536 sel 1;
#X msg 1217 559 1;
#X obj 267 349 t b b b;
#X obj 1212 154 pack s s;
#X obj 1210 83 v cursong;
#X obj 1269 132 symbol \$1.wav;
#X obj 1210 57 t b b;
#X obj 1213 182 t a a;
#X obj 1362 341 symbol;
#X msg 1364 367 open \$1;
#X obj 1265 355 s t\$1status;
#X obj 58 9 loadbang;
#X msg 58 33 0;
#X text 142 20 0 is doesn't exist \, 1 exists;
#X obj 58 62 v t\$1file-exists;
#X msg 1238 320 1;
#X obj 1369 34 s t\$1file-exists;
#X obj 1258 -33 t b b;
#X obj 1205 380 s t\$1file-exists;
#X text 1364 651 loop on: play it again loop off: signal done, f 19;
#X text 1334 250 open the file and start playing only if it exists;
#X text 1254 558 only output anything outta readsf if file exists and playing, f 26;
#X obj 807 495 s t$status;
#X msg 811 459 0;
#X obj 1132 696 line~;
#X msg 1125 663 0 5;
#X msg 1165 665 1 5;
#X obj 1147 733 *~;
#X obj 1071 767 *~;
#X obj 817 404 delay 6;
#X obj 818 429 t b b;
#X obj 824 295 t b b b b;
#X obj 223 442 t b b;
#X obj 1186 273 t b b b b b;
#X obj 1504 69 pack s s;
#X obj 1502 -2 v cursong;
#X obj 1561 47 symbol \$1.wav;
#X obj 1502 -28 t b b;
#X msg 1504 161 1;
#X obj 1536 194 s t\$1file-exists;
#X obj 1502 -95 r check-for-files;
#X obj 105 211 inlet~;
#X obj 281 696 writesf~ 2;
#X obj 285 641 *~;
#X obj 1105 546 readsf~ 2;
#X obj 1065 660 *~;
#X obj 1131 769 *~;
#X obj 1131 813 outlet~;
#X obj 1504 116 file isfile;
#X msg 1557 161 0;
#X obj 1174 243 file isfile;
#X msg 521 466 symbol sdcard/songs/\$1;
#X msg 1213 110 symbol sdcard/songs/\$1;
#X msg 1501 25 symbol sdcard/songs/\$1;
#X obj 671 551 mkdir;
#X obj 637 516 t s s;
#X text 630 602 FIXME: removed directory prefix \$1/;
#X msg 521 563 open \$2;
#X msg 1262 211 symbol \$2;
#X msg 1175 212 symbol \$2;
#X text 971 180 FIXME: removed directory prefix \$1/;
#X text 1310 229 FIXME: removed directory prefix \$1/;
#X text 1565 72 FIXME: removed directory prefix \$1/;
#X msg 1504 93 symbol \$2;
#X obj 1392 410 print open;
#X connect 0 0 143 0;
#X connect 1 0 85 0;
#X connect 2 0 8 0;
#X connect 3 0 158 0;
#X connect 4 0 152 0;
#X connect 5 0 3 1;
#X connect 6 0 12 0;
#X connect 6 1 91 0;
#X connect 8 0 6 0;
#X connect 8 1 67 0;
#X connect 9 0 103 0;
#X connect 10 0 69 0;
#X connect 11 0 103 0;
#X connect 12 0 86 0;
#X connect 13 0 145 0;
#X connect 14 0 145 0;
#X connect 15 0 13 0;
#X connect 16 0 24 0;
#X connect 17 0 95 0;
#X connect 18 0 93 0;
#X connect 19 0 20 0;
#X connect 20 0 21 1;
#X connect 20 0 146 1;
#X connect 21 0 129 0;
#X connect 22 0 118 0;
#X connect 23 0 33 0;
#X connect 26 0 132 0;
#X connect 27 0 132 0;
#X connect 28 0 94 0;
#X connect 28 0 97 0;
#X connect 28 0 117 0;
#X connect 29 0 143 0;
#X connect 31 0 18 0;
#X connect 32 0 84 1;
#X connect 32 0 84 0;
#X connect 33 0 34 0;
#X connect 33 1 34 1;
#X connect 34 0 19 0;
#X connect 35 0 32 0;
#X connect 36 0 32 0;
#X connect 37 0 42 0;
#X connect 37 1 41 0;
#X connect 38 0 39 0;
#X connect 39 0 37 0;
#X connect 40 0 38 0;
#X connect 44 0 45 0;
#X connect 44 1 47 0;
#X connect 44 2 50 0;
#X connect 44 3 48 0;
#X connect 46 0 43 0;
#X connect 47 0 49 0;
#X connect 50 0 51 0;
#X connect 51 0 46 0;
#X connect 52 0 75 0;
#X connect 55 0 56 0;
#X connect 56 0 57 0;
#X connect 57 0 58 0;
#X connect 58 0 53 0;
#X connect 58 1 54 0;
#X connect 58 2 89 0;
#X connect 59 0 76 0;
#X connect 60 0 16 0;
#X connect 61 0 72 0;
#X connect 62 0 79 0;
#X connect 66 0 65 0;
#X connect 67 0 68 0;
#X connect 70 0 74 0;
#X connect 71 0 70 1;
#X connect 72 0 60 1;
#X connect 72 1 71 0;
#X connect 73 0 60 0;
#X connect 73 1 70 0;
#X connect 74 0 64 0;
#X connect 74 1 66 0;
#X connect 75 0 77 0;
#X connect 76 0 88 0;
#X connect 77 0 44 0;
#X connect 79 0 63 0;
#X connect 80 0 73 0;
#X connect 82 0 12 0;
#X connect 83 0 31 0;
#X connect 83 0 15 0;
#X connect 84 0 85 1;
#X connect 84 0 144 1;
#X connect 85 0 143 0;
#X connect 86 0 36 0;
#X connect 86 1 0 0;
#X connect 87 0 133 0;
#X connect 88 0 55 0;
#X connect 88 1 55 0;
#X connect 90 0 132 0;
#X connect 91 0 4 0;
#X connect 91 1 5 0;
#X connect 92 0 103 0;
#X connect 96 0 16 1;
#X connect 98 0 83 0;
#X connect 100 0 101 0;
#X connect 101 0 102 0;
#X connect 102 0 80 1;
#X connect 103 0 87 0;
#X connect 103 1 35 0;
#X connect 103 2 82 0;
#X connect 104 0 108 0;
#X connect 105 0 153 0;
#X connect 106 0 104 1;
#X connect 107 0 105 0;
#X connect 107 1 106 0;
#X connect 108 0 160 0;
#X connect 108 1 159 0;
#X connect 109 0 110 0;
#X connect 110 0 145 0;
#X connect 110 0 165 0;
#X connect 112 0 113 0;
#X connect 113 0 115 0;
#X connect 116 0 111 0;
#X connect 116 0 119 0;
#X connect 118 0 107 0;
#X connect 118 1 28 0;
#X connect 124 0 123 0;
#X connect 125 0 128 1;
#X connect 125 0 128 0;
#X connect 126 0 125 0;
#X connect 127 0 125 0;
#X connect 128 0 129 1;
#X connect 128 0 147 1;
#X connect 129 0 25 0;
#X connect 130 0 131 0;
#X connect 131 0 124 0;
#X connect 131 1 14 0;
#X connect 132 0 130 0;
#X connect 132 1 17 0;
#X connect 132 2 99 0;
#X connect 132 3 126 0;
#X connect 133 0 10 0;
#X connect 133 1 29 0;
#X connect 134 0 15 0;
#X connect 134 1 31 0;
#X connect 134 2 116 0;
#X connect 134 3 127 0;
#X connect 134 4 109 0;
#X connect 135 0 164 0;
#X connect 136 0 154 0;
#X connect 137 0 135 1;
#X connect 138 0 136 0;
#X connect 138 1 137 0;
#X connect 139 0 140 0;
#X connect 141 0 138 0;
#X connect 142 0 144 0;
#X connect 144 0 143 1;
#X connect 145 0 21 0;
#X connect 145 1 146 0;
#X connect 145 2 80 0;
#X connect 146 0 147 0;
#X connect 147 0 148 0;
#X connect 149 0 139 0;
#X connect 149 1 150 0;
#X connect 150 0 140 0;
#X connect 151 0 134 0;
#X connect 152 0 156 0;
#X connect 153 0 104 0;
#X connect 154 0 135 0;
#X connect 156 0 3 0;
#X connect 156 1 155 0;
#X connect 158 0 30 0;
#X connect 158 0 143 0;
#X connect 159 0 109 1;
#X connect 160 0 151 0;
#X connect 164 0 149 0;
