#N canvas 39 2 856 727 10;
#X declare -path lib;
#N canvas 174 61 819 572 track-it 0;
#X obj 331 461 outlet~;
#X obj 334 151 inlet~;
#X obj 213 290 track 1;
#X obj 267 290 track 2;
#X obj 320 289 track 3;
#X obj 375 290 track 4;
#X obj 430 289 track 5;
#X obj 503 270 r knob1;
#X obj 503 291 s t1_vol;
#X obj 563 270 r knob2;
#X obj 563 291 s t2_vol;
#X obj 629 270 r knob3;
#X obj 629 291 s t3_vol;
#X obj 689 270 r knob4;
#X obj 689 291 s t4_vol;
#X obj 748 270 r knob5;
#X obj 748 291 s t5_vol;
#X obj 442 154 inlet~;
#X obj 428 457 outlet~;
#X connect 1 0 2 0;
#X connect 1 0 4 0;
#X connect 1 0 6 0;
#X connect 1 0 3 0;
#X connect 1 0 5 0;
#X connect 2 0 0 0;
#X connect 2 1 18 0;
#X connect 3 0 0 0;
#X connect 3 1 18 0;
#X connect 4 0 0 0;
#X connect 4 1 18 0;
#X connect 5 0 0 0;
#X connect 5 1 18 0;
#X connect 6 0 0 0;
#X connect 6 1 18 0;
#X connect 7 0 8 0;
#X connect 9 0 10 0;
#X connect 11 0 12 0;
#X connect 13 0 14 0;
#X connect 15 0 16 0;
#X connect 17 0 2 1;
#X connect 17 0 4 1;
#X connect 17 0 6 1;
#X connect 17 0 3 1;
#X connect 17 0 5 1;
#X restore 170 405 pd track-it;
#X obj 327 436 *~;
#X obj 445 342 *;
#X obj 445 315 t f f;
#X obj 445 370 sig~;
#X obj 445 395 lop~ 5;
#X obj 445 289 r knob6;
#X obj 328 499 *~;
#N canvas 395 36 844 578 track-select 0;
#X obj 400 528 s rec-en;
#X obj 368 497 t b f;
#X obj 346 531 s reled;
#X obj 454 85 r status;
#X obj 395 200 spigot 1;
#X obj 162 48 r key9;
#X obj 207 49 r key10;
#X obj 268 49 r key11;
#X obj 328 50 r key12;
#X obj 387 51 r key13;
#X obj 163 78 sel 1;
#X obj 215 79 sel 1;
#X obj 269 80 sel 1;
#X obj 327 81 sel 1;
#X obj 385 79 sel 1;
#X obj 412 292 v rec-en;
#X msg 162 109 1;
#X msg 207 109 2;
#X msg 269 110 3;
#X msg 328 107 4;
#X msg 385 112 5;
#X obj 390 319 ==;
#X obj 391 348 sel 0 1;
#X obj 385 266 t f b f;
#X obj 388 388 i;
#X msg 413 389 0;
#X text 490 107 enabled a track only when stopped;
#X obj 453 107 == 0;
#X connect 1 0 2 0;
#X connect 1 1 0 0;
#X connect 3 0 27 0;
#X connect 4 0 23 0;
#X connect 5 0 10 0;
#X connect 6 0 11 0;
#X connect 7 0 12 0;
#X connect 8 0 13 0;
#X connect 9 0 14 0;
#X connect 10 0 16 0;
#X connect 11 0 17 0;
#X connect 12 0 18 0;
#X connect 13 0 19 0;
#X connect 14 0 20 0;
#X connect 15 0 21 1;
#X connect 16 0 4 0;
#X connect 17 0 4 0;
#X connect 18 0 4 0;
#X connect 19 0 4 0;
#X connect 20 0 4 0;
#X connect 21 0 22 0;
#X connect 22 0 24 0;
#X connect 22 1 25 0;
#X connect 23 0 21 0;
#X connect 23 1 15 0;
#X connect 23 2 24 1;
#X connect 24 0 1 0;
#X connect 25 0 1 0;
#X connect 27 0 4 1;
#X restore 140 104 pd track-select;
#N canvas 78 50 1141 512 song-select 0;
#X obj 661 282 + 1;
#X obj 120 301 - 1;
#X obj 659 306 expr if($f1 > $f2 \, 1 \, $f1);
#X obj 122 326 expr if($f1 < 1 \, $f2 \, $f1);
#X obj 120 275 v cursong;
#X obj 221 276 v totalsongs;
#X obj 738 259 v totalsongs;
#X obj 89 32 r key6;
#X obj 663 29 r key8;
#X obj 89 58 sel 1;
#X obj 663 55 sel 1;
#X obj 661 260 v cursong;
#X obj 661 337 s cursong;
#X obj 126 352 s cursong;
#X obj 825 10 r cursong;
#X obj 237 217 s stop;
#X obj 748 210 s stop;
#X obj 394 221 + 1;
#X obj 469 413 i;
#X obj 475 199 s stop;
#X obj 394 199 v totalsongs;
#X obj 432 472 s cursong;
#X obj 432 444 t f f;
#X obj 495 472 s totalsongs;
#X obj 91 162 t b b b b;
#X obj 660 162 t b b b b;
#X obj 41 256 s play;
#X obj 43 215 delay 100;
#X obj 608 243 s play;
#X obj 610 202 delay 100;
#X obj 662 82 v status;
#X obj 662 104 sel 0 1 2;
#X obj 391 69 v status;
#X obj 391 101 sel 0 1 2;
#X obj 89 86 v status;
#X obj 89 108 sel 0 1 2;
#X obj 397 161 t b b;
#X text 731 85 only allow during play or stop \, not bounce down;
#X obj 465 289 s mute-dac;
#X obj 434 382 t b b;
#X obj 358 422 s unmute-dac;
#X obj 398 294 i;
#X obj 397 244 t b f f b;
#X obj 362 270 delay 10;
#X obj 388 353 mkdir;
#X obj 825 53 print cursong;
#X obj 393 320 songpath;
#X obj 386 23 r NEW_SONG;
#X obj 390 44 t b;
#X obj 871 176 print numer-songs;
#X obj 870 133 r totalsongs;
#X connect 0 0 2 0;
#X connect 1 0 3 0;
#X connect 2 0 12 0;
#X connect 3 0 13 0;
#X connect 4 0 1 0;
#X connect 5 0 3 1;
#X connect 6 0 2 1;
#X connect 7 0 9 0;
#X connect 8 0 10 0;
#X connect 9 0 34 0;
#X connect 10 0 30 0;
#X connect 11 0 0 0;
#X connect 14 0 45 0;
#X connect 17 0 42 0;
#X connect 18 0 22 0;
#X connect 20 0 17 0;
#X connect 22 0 21 0;
#X connect 22 1 23 0;
#X connect 24 0 27 0;
#X connect 24 1 4 0;
#X connect 24 2 5 0;
#X connect 24 3 15 0;
#X connect 25 0 29 0;
#X connect 25 1 11 0;
#X connect 25 2 6 0;
#X connect 25 3 16 0;
#X connect 27 0 26 0;
#X connect 29 0 28 0;
#X connect 30 0 31 0;
#X connect 31 0 25 0;
#X connect 31 1 25 0;
#X connect 32 0 33 0;
#X connect 33 0 36 0;
#X connect 33 1 36 0;
#X connect 34 0 35 0;
#X connect 35 0 24 0;
#X connect 35 1 24 0;
#X connect 36 0 20 0;
#X connect 36 1 19 0;
#X connect 39 0 40 0;
#X connect 39 1 18 0;
#X connect 41 0 46 0;
#X connect 42 0 43 0;
#X connect 42 1 41 1;
#X connect 42 2 18 1;
#X connect 42 3 38 0;
#X connect 43 0 41 0;
#X connect 44 0 39 0;
#X connect 46 0 44 0;
#X connect 47 0 48 0;
#X connect 48 0 32 0;
#X connect 50 0 49 0;
#X restore 140 127 pd song-select;
#N canvas 45 149 703 328 init 0;
#X obj 168 19 loadbang;
#X msg 329 111 0, f 5;
#X obj 595 120 s status;
#X obj 109 233 s reled;
#X msg 52 170 \; pd dsp 1;
#X obj 154 197 s osc-init;
#X obj 544 183 s busy;
#X obj 504 212 s loop-en;
#X obj 11 110 s unmute-dac;
#N canvas 420 100 770 571 init-songs 0;
#X obj 505 231 text define -k SONGS;
#A set C:/Users/nikodemus/OneDrive/Music/_PD/kuutamo/pd/../songs/;
#X obj 502 262 text fromlist SONGS;
#X obj 421 308 file mkdir;
#X obj 420 272 songpath;
#X msg 421 242 1;
#X obj 420 199 t b s s b;
#N canvas 6 50 450 300 countsongs 0;
#X obj 111 173 f 0;
#X obj 111 146 t b;
#X obj 146 172 + 1;
#X obj 111 199 t f f;
#X obj 93 51 t b b b;
#X obj 93 225 f;
#X msg 153 146 1;
#X obj 91 253 outlet;
#X obj 90 15 inlet;
#X obj 111 119 file glob;
#X msg 111 80 list *;
#X obj 207 88 songpath;
#X obj 267 18 bng 17 250 50 0 empty empty empty 0 -9 0 10 #fcfcfc #000000 #000000;
#X connect 0 0 3 0;
#X connect 1 0 0 0;
#X connect 2 0 0 1;
#X connect 3 0 5 1;
#X connect 3 1 2 0;
#X connect 4 0 5 0;
#X connect 4 1 10 0;
#X connect 4 2 6 0;
#X connect 5 0 7 0;
#X connect 6 0 0 1;
#X connect 8 0 4 0;
#X connect 9 0 1 0;
#X connect 10 0 11 0;
#X connect 11 0 9 0;
#X connect 12 0 4 0;
#X restore 476 379 pd countsongs;
#X obj 420 345 t b b;
#X obj 474 422 s totalsongs;
#X obj 501 291 print songs;
#X text 29 11 Defines [text] SONGS \, which stores the path to the songs/ folder - should work both on 5 Moons and computer. Ensures songs/ exists \, and has at least 1/ inside it., f 52;
#X text 29 70 Create paths to songs and wavs using [songpath] \, which accesses SONGS., f 52;
#X obj 416 61 inlet;
#X obj 548 60 bng 17 250 50 0 empty empty empty 0 -9 0 10 #fcfcfc #000000 #000000;
#X obj 459 91 text tolist SONGFOLDER;
#X msg 82 413 1;
#X obj 65 475 s cursong;
#X obj 136 277 v STARTUP_SONG;
#X obj 136 309 sel 1 -1 0;
#X text 136 238 1 first \, -1 last \, 0 new;
#X obj 260 459 s NEW_SONG;
#X obj 116 437 v totalsongs;
#X obj 214 375 song-is-empty;
#X obj 216 410 sel 1;
#X obj 209 345 v totalsongs;
#X obj 418 155 patchpath;
#X msg 417 117 list \$1 0;
#X connect 2 0 7 0;
#X connect 3 0 2 0;
#X connect 4 0 3 0;
#X connect 5 0 4 0;
#X connect 5 1 9 0;
#X connect 5 2 1 0;
#X connect 5 3 0 0;
#X connect 6 0 8 0;
#X connect 7 0 17 0;
#X connect 7 1 6 0;
#X connect 12 0 14 0;
#X connect 13 0 14 0;
#X connect 14 0 26 0;
#X connect 15 0 16 0;
#X connect 17 0 18 0;
#X connect 18 0 15 0;
#X connect 18 1 21 0;
#X connect 18 2 24 0;
#X connect 21 0 16 0;
#X connect 22 0 23 0;
#X connect 23 0 21 0;
#X connect 23 1 20 0;
#X connect 24 0 22 0;
#X connect 25 0 5 0;
#X connect 26 0 25 0;
#X restore 192 163 pd init-songs;
#N canvas 506 18 698 691 load-config 0;
#X msg 29 169 read \$1;
#X obj 139 305 textfile;
#X obj 29 222 t b b a;
#X msg 62 259 rewind;
#X obj 29 283 until;
#X obj 56 388 parse_boolean;
#X obj 29 18 inlet;
#X obj 160 413 parse_boolean;
#X obj 40 414 s MONITOR_ENABLE;
#X obj 461 402 print ERROR Unknown config option;
#X obj 29 48 t b b;
#X obj 157 16 bng 17 250 50 0 empty empty empty 0 -9 0 10 #fcfcfc #000000 #000000;
#X obj 224 79 text define -k SONGFOLDER;
#A set ../songs/;
#X obj 242 522 text fromlist SONGFOLDER;
#X obj 255 473 symbol;
#X text 344 251 Dash is a comment in config file.;
#X obj 417 457 route first last new;
#X msg 424 503 1;
#X msg 475 504 -1;
#X floatatom 530 505 5 0 0 0 - - - 0;
#X obj 454 555 s STARTUP_SONG;
#X obj 286 249 route -;
#X obj 137 350 route MONITOR LOOP SONGFOLDER STARTUP_SONG;
#X obj 129 616 print ERROR - Unknown setting for STARTUP_SONG;
#X obj 569 469 t b b a;
#X obj 151 660 print INFO - Using STARTUP_SONG new;
#X obj 160 445 s loop-en;
#X obj 30 121 patchpath;
#X msg 29 86 list config.txt -1;
#X connect 0 0 2 0;
#X connect 1 0 21 0;
#X connect 1 1 4 1;
#X connect 2 0 4 0;
#X connect 2 1 3 0;
#X connect 2 2 1 0;
#X connect 3 0 1 0;
#X connect 4 0 1 0;
#X connect 5 0 8 0;
#X connect 6 0 10 0;
#X connect 7 0 26 0;
#X connect 10 0 28 0;
#X connect 10 1 12 0;
#X connect 11 0 10 0;
#X connect 14 0 13 0;
#X connect 16 0 17 0;
#X connect 16 1 18 0;
#X connect 16 2 19 0;
#X connect 16 3 24 0;
#X connect 17 0 20 0;
#X connect 18 0 20 0;
#X connect 19 0 20 0;
#X connect 21 1 22 0;
#X connect 22 0 5 0;
#X connect 22 1 7 0;
#X connect 22 2 14 0;
#X connect 22 3 16 0;
#X connect 22 4 9 0;
#X connect 24 0 19 0;
#X connect 24 1 25 0;
#X connect 24 2 23 0;
#X connect 27 0 0 0;
#X connect 28 0 27 0;
#X restore 220 132 pd load-config;
#X obj 568 150 s rec-en;
#X obj 168 46 t b b b b b b b;
#X obj 301 5 bng 17 250 50 0 empty empty empty 0 -9 0 10 #fcfcfc #000000 #000000;
#X connect 0 0 12 0;
#X connect 1 0 2 0;
#X connect 1 0 11 0;
#X connect 1 0 6 0;
#X connect 1 0 7 0;
#X connect 12 0 8 0;
#X connect 12 1 4 0;
#X connect 12 2 3 0;
#X connect 12 3 5 0;
#X connect 12 4 9 0;
#X connect 12 5 10 0;
#X connect 12 6 1 0;
#X connect 13 0 12 0;
#X restore 141 17 pd init;
#X obj 21 17 declare -path lib;
#N canvas 58 14 1121 756 bounce-down 0;
#X obj 422 -11 sel 1;
#X obj 470 196 + 1;
#X obj 519 344 i;
#X obj 473 219 t f f;
#X obj 470 174 v totalsongs;
#X obj 422 -33 r key2;
#X msg 503 594 start;
#X obj 453 490 delay 15;
#X obj 597 630 print bounce;
#X obj 618 402 s totalsongs;
#X obj 46 430 delay 100;
#X obj 45 463 s play;
#X obj 87 385 v totalsongs;
#X obj 87 406 s cursong;
#X obj 205 83 r stop-bounce;
#X obj 166 338 s status;
#X obj 130 363 s rec-en;
#X msg 166 308 0;
#X msg 130 313 0;
#X obj 203 307 s stop-all;
#X obj 147 217 t b b b b b b, f 18;
#N canvas 411 436 683 305 play-all 0;
#X obj 171 192 s t1play;
#X obj 259 190 s t2play;
#X obj 331 186 s t3play;
#X obj 419 187 s t4play;
#X obj 498 189 s t5play;
#X obj 211 17 inlet;
#X obj 215 100 t b b b b b, f 29;
#X connect 5 0 6 0;
#X connect 6 0 0 0;
#X connect 6 1 1 0;
#X connect 6 2 2 0;
#X connect 6 3 3 0;
#X connect 6 4 4 0;
#X restore 557 422 pd play-all;
#X obj 520 445 s reled;
#X obj 422 13 v status;
#X msg 557 152 2;
#X obj 557 175 s status;
#X obj 523 369 t b b b f f, f 16;
#X obj 437 588 line~;
#X msg 401 553 0 5;
#X msg 440 561 1 5;
#X obj 436 620 *~;
#X obj 431 655 *~;
#X obj 453 514 t b b;
#X msg 265 371 stop;
#X obj 476 127 t b b;
#X text 511 503 this delay ensures recorded track lines up with playing tracks, f 23;
#X obj 717 219 + 1;
#X obj 766 367 i;
#X obj 720 242 t f f;
#X obj 717 197 v totalsongs;
#X obj 865 425 s totalsongs;
#X obj 800 464 s reled;
#X msg 804 175 2;
#X obj 804 198 s status;
#X obj 422 35 sel 2 0 1;
#X text 178 61 bouncing \, stop it;
#X text 701 105 running \, stop any recordings then start bounce;
#X obj 770 392 t b b f f, f 16;
#X obj 894 178 s stop-recording-and-play;
#X obj 706 172 delay 110;
#X obj 749 329 t b b;
#X obj 828 356 s unmute-dac;
#X obj 509 312 t b;
#X obj 722 133 t b b b b;
#X obj 913 157 s mute-dac;
#X obj 142 163 delay 10;
#X obj 206 126 t b b;
#N canvas 38 86 1170 543 check-all-files-exist 0;
#X obj 270 32 inlet;
#X obj 430 352 outlet;
#X obj 254 99 t b b b b b, f 78;
#X obj 430 311 sel 1;
#X obj 272 62 t b b, f 107;
#X obj 914 103 s check-for-files;
#X obj 254 127 v t1file-exists;
#X obj 369 128 v t2file-exists;
#X obj 486 127 v t3file-exists;
#X obj 593 129 v t4file-exists;
#X obj 710 131 v t5file-exists;
#X obj 704 158 == 1;
#X obj 596 156 == 1;
#X obj 490 162 == 1;
#X obj 366 158 == 1;
#X obj 254 154 == 1;
#X obj 506 352 t b;
#X obj 506 373 print no-bounce;
#X obj 650 185 ||;
#X obj 568 220 ||;
#X obj 498 251 ||;
#X obj 430 281 ||;
#X connect 0 0 4 0;
#X connect 2 0 6 0;
#X connect 2 1 7 0;
#X connect 2 2 8 0;
#X connect 2 3 9 0;
#X connect 2 4 10 0;
#X connect 3 0 1 0;
#X connect 3 1 16 0;
#X connect 4 0 2 0;
#X connect 4 1 5 0;
#X connect 6 0 15 0;
#X connect 7 0 14 0;
#X connect 8 0 13 0;
#X connect 9 0 12 0;
#X connect 10 0 11 0;
#X connect 11 0 18 1;
#X connect 12 0 18 0;
#X connect 13 0 19 0;
#X connect 14 0 20 0;
#X connect 15 0 21 0;
#X connect 16 0 17 0;
#X connect 18 0 19 1;
#X connect 19 0 20 1;
#X connect 20 0 21 1;
#X connect 21 0 3 0;
#X restore 444 101 pd check-all-files-exist;
#X text 407 72 stopped \, start bounce \, but only if we have something to bounce, f 35;
#X obj 432 712 writesf~ 2;
#X obj 505 673 *~;
#X obj 163 508 r~ maininL;
#X obj 235 507 r~ mainoutL;
#X obj 550 654 r~ maininR;
#X obj 665 662 r~ mainoutR;
#X obj 459 283 mkdir;
#X obj 721 290 mkdir;
#X obj 465 249 songpath;
#X msg 572 599 open \$1;
#X obj 719 266 songpath;
#X obj 572 560 trackpath 1;
#X connect 0 0 23 0;
#X connect 1 0 3 0;
#X connect 2 0 26 0;
#X connect 3 0 67 0;
#X connect 3 1 2 1;
#X connect 4 0 1 0;
#X connect 5 0 0 0;
#X connect 6 0 59 0;
#X connect 7 0 32 0;
#X connect 10 0 11 0;
#X connect 12 0 13 0;
#X connect 14 0 56 0;
#X connect 17 0 15 0;
#X connect 18 0 16 0;
#X connect 20 0 10 0;
#X connect 20 1 12 0;
#X connect 20 2 18 0;
#X connect 20 3 17 0;
#X connect 20 4 19 0;
#X connect 20 5 33 0;
#X connect 23 0 44 0;
#X connect 24 0 25 0;
#X connect 26 0 7 0;
#X connect 26 1 22 0;
#X connect 26 2 21 0;
#X connect 26 3 70 0;
#X connect 26 4 9 0;
#X connect 27 0 30 1;
#X connect 27 0 30 0;
#X connect 28 0 27 0;
#X connect 29 0 27 0;
#X connect 30 0 31 1;
#X connect 30 0 60 0;
#X connect 31 0 59 0;
#X connect 32 0 29 0;
#X connect 32 1 6 0;
#X connect 33 0 59 0;
#X connect 34 0 4 0;
#X connect 34 1 24 0;
#X connect 36 0 38 0;
#X connect 37 0 47 0;
#X connect 38 0 69 0;
#X connect 38 1 37 1;
#X connect 39 0 36 0;
#X connect 42 0 43 0;
#X connect 44 0 56 0;
#X connect 44 1 57 0;
#X connect 44 2 53 0;
#X connect 47 0 7 0;
#X connect 47 1 41 0;
#X connect 47 2 70 0;
#X connect 47 3 40 0;
#X connect 49 0 39 0;
#X connect 50 0 37 0;
#X connect 50 1 51 0;
#X connect 52 0 2 0;
#X connect 53 0 49 0;
#X connect 53 1 42 0;
#X connect 53 2 48 0;
#X connect 53 3 54 0;
#X connect 55 0 20 0;
#X connect 56 0 55 0;
#X connect 56 1 28 0;
#X connect 57 0 34 0;
#X connect 60 0 59 1;
#X connect 61 0 31 0;
#X connect 62 0 31 0;
#X connect 63 0 60 1;
#X connect 64 0 60 1;
#X connect 65 0 52 0;
#X connect 66 0 50 0;
#X connect 67 0 65 0;
#X connect 68 0 8 0;
#X connect 68 0 59 0;
#X connect 69 0 66 0;
#X connect 70 0 68 0;
#X restore 140 150 pd bounce-down;
#N canvas 78 127 588 571 hot-record 0;
#X obj 381 36 r status;
#X obj 38 27 r key9;
#X obj 83 28 r key10;
#X obj 144 28 r key11;
#X obj 204 29 r key12;
#X obj 263 30 r key13;
#X obj 39 57 sel 1;
#X obj 91 58 sel 1;
#X obj 145 59 sel 1;
#X obj 203 60 sel 1;
#X obj 261 58 sel 1;
#X msg 38 88 1;
#X msg 83 88 2;
#X msg 145 89 3;
#X msg 204 86 4;
#X msg 261 91 5;
#X obj 275 178 spigot 0;
#X obj 360 449 s rec-en;
#X obj 277 262 v rec-en;
#X obj 280 289 > 0;
#X obj 280 311 sel 0 1;
#X obj 310 402 i;
#X obj 309 423 t b f, f 9;
#X obj 273 238 t b f;
#X text 337 313 if a track recording \, stop it;
#X text 176 423 otherwise start it;
#X obj 351 95 == 1;
#X obj 309 475 s stop-playing-and-record;
#X obj 308 349 s stop-recording-and-play;
#X obj 359 171 r loop-en;
#X obj 275 210 spigot 0;
#X text 364 217 only do it when looping;
#X text 391 96 if running;
#X connect 0 0 26 0;
#X connect 1 0 6 0;
#X connect 2 0 7 0;
#X connect 3 0 8 0;
#X connect 4 0 9 0;
#X connect 5 0 10 0;
#X connect 6 0 11 0;
#X connect 7 0 12 0;
#X connect 8 0 13 0;
#X connect 9 0 14 0;
#X connect 10 0 15 0;
#X connect 11 0 16 0;
#X connect 12 0 16 0;
#X connect 13 0 16 0;
#X connect 14 0 16 0;
#X connect 15 0 16 0;
#X connect 16 0 30 0;
#X connect 18 0 19 0;
#X connect 19 0 20 0;
#X connect 20 0 21 0;
#X connect 20 1 28 0;
#X connect 21 0 22 0;
#X connect 22 0 27 0;
#X connect 22 1 17 0;
#X connect 23 0 18 0;
#X connect 23 1 21 1;
#X connect 26 0 16 1;
#X connect 29 0 30 1;
#X connect 30 0 23 0;
#X restore 140 173 pd hot-record;
#X obj 342 6 v rec-en;
#X obj 342 32 v status;
#X obj 342 58 v totalsongs;
#X obj 342 83 v cursong;
#X obj 342 110 v loop-en;
#X text 402 4 0 = nothing enabled \, 1-5 tracks enabled;
#X text 407 109 0 = disabled \, 1 = disabled;
#X text 401 33 0 = stopped \, 1 = running \, 2 = overdubbing;
#N canvas 121 146 745 487 loop-enable 0;
#X obj 149 44 r key3;
#X obj 73 320 s loop-en;
#X obj 149 73 sel 1;
#X obj 149 101 v status;
#X obj 149 129 sel 0 1 2;
#X obj 71 245 v loop-en;
#X obj 71 266 sel 0 1;
#X msg 68 289 1;
#X msg 102 290 0;
#X text 275 92 dont change while in bouncd mode;
#X text 258 188 if playing \, restart all bc we don't want ones that finished to look empty .;
#X obj 254 229 v loop-en;
#X obj 254 250 sel 0 1;
#X obj 245 299 t b b b;
#X obj 289 327 s stop;
#X obj 262 381 s loop-en;
#X msg 257 350 1;
#X obj 179 349 delay 100;
#X obj 179 380 s play;
#X msg 343 308 0;
#X obj 345 339 s loop-en;
#X text 328 227 if looping enable \, just disable. if disabled \, enable and restart all;
#X obj 497 316 r loop-en;
#X obj 496 348 sel 0 1;
#X obj 491 423 s SW_STATUS;
#X msg 419 384 symbol LOOP-OFF;
#X msg 543 377 symbol LOOP-ON;
#X connect 0 0 2 0;
#X connect 2 0 3 0;
#X connect 3 0 4 0;
#X connect 4 0 5 0;
#X connect 4 1 11 0;
#X connect 5 0 6 0;
#X connect 6 0 7 0;
#X connect 6 1 8 0;
#X connect 7 0 1 0;
#X connect 8 0 1 0;
#X connect 11 0 12 0;
#X connect 12 0 13 0;
#X connect 12 1 19 0;
#X connect 13 0 17 0;
#X connect 13 1 16 0;
#X connect 13 2 14 0;
#X connect 16 0 15 0;
#X connect 17 0 18 0;
#X connect 19 0 20 0;
#X connect 22 0 23 0;
#X connect 23 0 25 0;
#X connect 23 1 26 0;
#X connect 25 0 24 0;
#X connect 26 0 24 0;
#X restore 140 196 pd loop-enable;
#N canvas 0 0 1284 760 start-stop 1;
#X obj 131 64 sel 1;
#X obj 130 34 r key5, f 10;
#X obj 133 98 v status;
#X obj 228 284 s reled;
#X obj 39 337 s reled;
#X obj 48 91 r stop;
#X obj 94 360 s rec-en;
#X obj 276 78 r play;
#X msg 94 310 0;
#X obj 155 251 s stop-all;
#X obj 133 125 sel 1 2 0;
#X obj 132 189 s stop-bounce;
#X obj 428 254 s start-all;
#X obj 583 73 r t1done-playing;
#X obj 641 93 r loop-en;
#X obj 589 141 spigot 0;
#X obj 640 115 == 0;
#X text 704 19 when all tracks done \, stop it. only do this when loop mode off;
#X obj 765 91 r loop-en;
#X obj 713 139 spigot 0;
#X obj 764 113 == 0;
#X obj 886 91 r loop-en;
#X obj 834 139 spigot 0;
#X obj 885 113 == 0;
#X obj 1008 89 r loop-en;
#X obj 956 137 spigot 0;
#X obj 1007 111 == 0;
#X obj 1129 85 r loop-en;
#X obj 1077 133 spigot 0;
#X obj 1128 107 == 0;
#X obj 707 71 r t2done-playing;
#X obj 828 71 r t3done-playing;
#X obj 950 69 r t4done-playing;
#X obj 1071 65 r t5done-playing;
#X obj 589 383 t b b b b b, f 78;
#X obj 589 411 v t1status;
#X obj 704 412 v t2status;
#X obj 821 411 v t3status;
#X obj 928 413 v t4status;
#X obj 1045 415 v t5status;
#X obj 1039 442 == 0;
#X obj 931 440 == 0;
#X obj 701 442 == 0;
#X obj 825 446 == 0;
#X obj 589 438 == 0;
#X obj 765 595 sel 1;
#X obj 762 696 s stop;
#X obj 985 469 &&;
#X obj 903 504 &&;
#X obj 833 535 &&;
#X obj 765 565 &&;
#X text 969 525 if all are done stop all;
#X obj 667 642 print auto-stop;
#X obj 776 637 v status;
#X obj 776 664 sel 1 2 0;
#X obj 810 696 s stop-bounce;
#X text 287 177 start but stop if nothing started (no files);
#X obj 288 298 s check-and-stop;
#X obj 712 343 r check-and-stop;
#X text 823 340 if none are running \, send stop signals;
#X obj 233 201 t b b b b;
#X obj 102 220 t b b b b;
#N canvas 135 276 511 378 set-status 0;
#X obj 76 19 inlet;
#X obj 145 69 v status;
#X obj 75 118 sel 0;
#X obj 74 172 t f f;
#X obj 142 190 s status;
#X obj 69 288 s SW_STATUS;
#X obj 72 213 sel 0 1 2;
#X msg 70 248 symbol STOP;
#X msg 166 251 symbol PLAY;
#X msg 274 250 symbol BOUNCE;
#X obj 108 145 int;
#X obj 76 43 t f b f;
#X obj 75 96 ==;
#X obj 303 46 print SET;
#X connect 0 0 11 0;
#X connect 0 0 13 0;
#X connect 1 0 12 1;
#X connect 2 0 10 0;
#X connect 3 0 6 0;
#X connect 3 1 4 0;
#X connect 6 0 7 0;
#X connect 6 1 8 0;
#X connect 6 2 9 0;
#X connect 7 0 5 0;
#X connect 8 0 5 0;
#X connect 9 0 5 0;
#X connect 10 0 3 0;
#X connect 11 0 12 0;
#X connect 11 1 1 0;
#X connect 11 2 10 1;
#X connect 12 0 2 0;
#X restore 215 426 pd set-status;
#X msg 294 231 1;
#X msg 159 308 0;
#X connect 0 0 2 0;
#X connect 1 0 0 0;
#X connect 2 0 10 0;
#X connect 5 0 61 0;
#X connect 7 0 60 0;
#X connect 8 0 6 0;
#X connect 10 0 61 0;
#X connect 10 1 11 0;
#X connect 10 2 60 0;
#X connect 13 0 15 0;
#X connect 14 0 16 0;
#X connect 15 0 34 0;
#X connect 16 0 15 1;
#X connect 18 0 20 0;
#X connect 19 0 34 0;
#X connect 20 0 19 1;
#X connect 21 0 23 0;
#X connect 22 0 34 0;
#X connect 23 0 22 1;
#X connect 24 0 26 0;
#X connect 25 0 34 0;
#X connect 26 0 25 1;
#X connect 27 0 29 0;
#X connect 28 0 34 0;
#X connect 29 0 28 1;
#X connect 30 0 19 0;
#X connect 31 0 22 0;
#X connect 32 0 25 0;
#X connect 33 0 28 0;
#X connect 34 0 35 0;
#X connect 34 1 36 0;
#X connect 34 2 37 0;
#X connect 34 3 38 0;
#X connect 34 4 39 0;
#X connect 35 0 44 0;
#X connect 36 0 42 0;
#X connect 37 0 43 0;
#X connect 38 0 41 0;
#X connect 39 0 40 0;
#X connect 40 0 47 1;
#X connect 41 0 47 0;
#X connect 42 0 49 0;
#X connect 43 0 48 0;
#X connect 44 0 50 0;
#X connect 45 0 52 0;
#X connect 45 0 53 0;
#X connect 47 0 48 1;
#X connect 48 0 49 1;
#X connect 49 0 50 1;
#X connect 50 0 45 0;
#X connect 53 0 54 0;
#X connect 54 0 46 0;
#X connect 54 1 55 0;
#X connect 58 0 34 0;
#X connect 60 0 3 0;
#X connect 60 1 57 0;
#X connect 60 2 63 0;
#X connect 60 3 12 0;
#X connect 61 0 4 0;
#X connect 61 1 8 0;
#X connect 61 2 64 0;
#X connect 61 3 9 0;
#X connect 63 0 62 0;
#X connect 64 0 62 0;
#X restore 141 81 pd start-stop;
#X obj 532 425 line~;
#X msg 532 392 0 5;
#X msg 607 392 1 5;
#X obj 532 356 r mute-dac;
#X obj 400 556 *~;
#X obj 532 471 *~;
#X obj 607 356 r unmute-dac;
#X obj 377 356 line~;
#X obj 400 604 dac~ 1 2;
#X obj 167 224 adc~ 1 2;
#X obj 81 271 s~ maininL;
#X obj 265 271 s~ maininR;
#X obj 236 533 s~ mainoutR;
#X obj 145 534 s~ mainoutL;
#X obj 365 499 *~;
#X obj 437 556 *~;
#X obj 364 436 *~;
#N canvas 30 36 1139 659 osc 0;
#N canvas 313 299 485 364 oscio 0;
#X obj 95 174 packOSC;
#X obj 252 154 udpreceive;
#X obj 252 176 unpackOSC;
#X obj 252 204 s oscIn;
#X obj 95 149 r oscOut;
#X msg 70 119 connect localhost 4001;
#X msg 252 124 port 4000;
#X obj 70 247 s udp-connected;
#X obj 70 209 udpsend;
#X obj 181 30 r osc-init, f 11;
#X obj 167 229 print udp;
#X connect 0 0 8 0;
#X connect 1 0 2 0;
#X connect 2 0 3 0;
#X connect 4 0 0 0;
#X connect 5 0 8 0;
#X connect 6 0 1 0;
#X connect 8 0 7 0;
#X connect 8 0 10 0;
#X connect 9 0 5 0;
#X connect 9 0 6 0;
#X restore 53 19 pd oscio;
#X obj 212 57 r oscIn;
#X obj 309 338 s knob1;
#X obj 309 306 / 255;
#X obj 415 306 / 255;
#X obj 523 306 / 255;
#X obj 415 338 s knob2;
#X obj 523 338 s knob3;
#X obj 631 337 s knob4;
#X obj 631 305 / 255;
#X obj 741 305 / 255;
#X obj 852 305 / 255;
#X obj 741 337 s knob5;
#X obj 852 337 s knob6;
#X obj 170 554 s key1;
#X obj 301 554 s key3;
#X obj 236 554 s key2;
#X obj 426 554 s key5;
#X obj 491 554 s key6;
#X obj 617 554 s key8;
#X obj 309 265 unpack 0 0 0 0 0 0, f 95;
#X obj 232 396 route 0 1 2 3 4 5 6 7 12 11 10 9 8, f 67;
#X obj 678 554 s key9;
#X obj 739 554 s key10;
#X obj 806 554 s key11;
#X obj 874 554 s key12;
#X obj 935 554 s key13;
#X obj 432 145 sel 1;
#X obj 419 205 delay 100;
#X msg 419 227 \; pd quit;
#X obj 210 105 routeOSC /key /knobs /quitpd;
#X obj 432 167 t b b b;
#X obj 640 208 print quitting;
#X obj 513 208 s stop;
#X text 554 159 stop all and then quit;
#X obj 432 83 r SW_QUIT;
#X obj 43 502 r SW_KEY1;
#X obj 238 306 r SW_KNOB1;
#X obj 347 306 r SW_KNOB2;
#X obj 453 306 r SW_KNOB3;
#X obj 562 305 r SW_KNOB4;
#X obj 673 305 r SW_KNOB5;
#X obj 783 305 r SW_KNOB6;
#X obj 44 457 r SW_KEY2;
#X obj 1019 447 r SW_KEY2;
#X obj 1017 491 r SW_KEY13;
#X obj 1018 404 r SW_KEY11;
#X obj 1020 360 r SW_KEY10;
#X obj 1020 314 r SW_KEY9;
#X obj 1019 269 r SW_KEY8;
#X obj 40 264 r SW_KEY6;
#X obj 40 312 r SW_KEY5;
#X obj 43 409 r SW_KEY3;
#X msg 1020 336 1;
#X msg 74 333 1;
#X msg 1020 381 1;
#X msg 1018 426 1;
#X msg 1018 469 1;
#X msg 1017 514 1;
#X msg 1019 291 1;
#X msg 72 286 1;
#X msg 76 433 1;
#X msg 77 479 1;
#X text 10 523 SW VU meter is latching;
#X obj 362 555 sel 1;
#X obj 362 592 s MONITOR;
#X text 371 574 KEY4;
#X text 557 577 KEY7;
#X obj 695 592 sel 1;
#X obj 554 554 sel 1;
#X obj 558 603 s NEW_SONG;
#X connect 1 0 30 0;
#X connect 3 0 2 0;
#X connect 4 0 6 0;
#X connect 5 0 7 0;
#X connect 9 0 8 0;
#X connect 10 0 12 0;
#X connect 11 0 13 0;
#X connect 20 0 3 0;
#X connect 20 1 4 0;
#X connect 20 2 5 0;
#X connect 20 3 9 0;
#X connect 20 4 10 0;
#X connect 20 5 11 0;
#X connect 21 0 14 0;
#X connect 21 1 16 0;
#X connect 21 2 15 0;
#X connect 21 3 64 0;
#X connect 21 4 17 0;
#X connect 21 5 18 0;
#X connect 21 6 69 0;
#X connect 21 7 19 0;
#X connect 21 8 22 0;
#X connect 21 9 23 0;
#X connect 21 10 24 0;
#X connect 21 11 25 0;
#X connect 21 12 26 0;
#X connect 27 0 31 0;
#X connect 28 0 29 0;
#X connect 30 0 21 0;
#X connect 30 1 20 0;
#X connect 30 2 27 0;
#X connect 31 0 28 0;
#X connect 31 1 33 0;
#X connect 31 2 32 0;
#X connect 35 0 27 0;
#X connect 36 0 14 0;
#X connect 37 0 2 0;
#X connect 38 0 6 0;
#X connect 39 0 7 0;
#X connect 40 0 8 0;
#X connect 41 0 12 0;
#X connect 42 0 13 0;
#X connect 43 0 62 0;
#X connect 44 0 57 0;
#X connect 45 0 58 0;
#X connect 46 0 56 0;
#X connect 47 0 55 0;
#X connect 48 0 53 0;
#X connect 49 0 59 0;
#X connect 50 0 60 0;
#X connect 51 0 54 0;
#X connect 52 0 61 0;
#X connect 53 0 22 0;
#X connect 54 0 17 0;
#X connect 55 0 23 0;
#X connect 56 0 24 0;
#X connect 57 0 25 0;
#X connect 58 0 26 0;
#X connect 59 0 19 0;
#X connect 60 0 18 0;
#X connect 61 0 15 0;
#X connect 62 0 16 0;
#X connect 64 0 65 0;
#X connect 69 0 70 0;
#X restore 141 38 pd osc;
#N canvas 54 54 1176 518 leds 0;
#X obj 186 52 r reled;
#N canvas 63 88 822 440 loop-flasher 0;
#X obj 110 95 r t1play;
#X obj 65 172 delay 50;
#X obj 65 197 s reled;
#X obj 177 306 delay 50;
#X obj 177 331 s reled;
#X obj 336 184 delay 50;
#X obj 336 209 s reled;
#X obj 406 327 delay 50;
#X obj 406 352 s reled;
#X obj 572 184 delay 50;
#X obj 572 209 s reled;
#X obj 361 105 r t2play;
#X obj 603 113 r t3play;
#X obj 210 236 r t4play;
#X obj 431 252 r t5play;
#X msg 138 171 100 100 100;
#X msg 409 183 100 100 100;
#X msg 645 183 100 100 100;
#X msg 250 305 100 100 100;
#X msg 479 326 100 100 100;
#X obj 88 124 t b b b;
#X obj 105 151 s led-flip;
#X obj 360 132 t b b b;
#X obj 603 137 t b b b, f 9;
#X obj 206 260 t b b b, f 9;
#X obj 430 277 t b b b, f 9;
#X obj 374 158 s led-flip;
#X obj 622 162 s led-flip;
#X obj 228 284 s led-flip;
#X obj 454 303 s led-flip;
#X obj 138 197 s led1-set;
#X obj 409 209 s led2-set;
#X obj 645 209 s led3-set;
#X obj 250 331 s led4-set;
#X obj 479 352 s led5-set;
#X text 256 23 flash when it plays again (and flash first time which is kinda nice);
#X connect 0 0 20 0;
#X connect 1 0 2 0;
#X connect 3 0 4 0;
#X connect 5 0 6 0;
#X connect 7 0 8 0;
#X connect 9 0 10 0;
#X connect 11 0 22 0;
#X connect 12 0 23 0;
#X connect 13 0 24 0;
#X connect 14 0 25 0;
#X connect 15 0 30 0;
#X connect 16 0 31 0;
#X connect 17 0 32 0;
#X connect 18 0 33 0;
#X connect 19 0 34 0;
#X connect 20 0 1 0;
#X connect 20 1 21 0;
#X connect 20 2 15 0;
#X connect 22 0 5 0;
#X connect 22 1 26 0;
#X connect 22 2 16 0;
#X connect 23 0 9 0;
#X connect 23 1 27 0;
#X connect 23 2 17 0;
#X connect 24 0 3 0;
#X connect 24 1 28 0;
#X connect 24 2 18 0;
#X connect 25 0 7 0;
#X connect 25 1 29 0;
#X connect 25 2 19 0;
#X restore 414 94 pd loop-flasher;
#X obj 685 44 array define led1 3;
#X obj 685 66 array define led2 3;
#X obj 685 89 array define led3 3;
#X obj 685 111 array define led4 3;
#X obj 685 134 array define led5 3;
#X obj 218 134 sel 0 1 2;
#X obj 218 105 v status;
#N canvas 494 191 1182 531 stopped-leds 0;
#X obj 132 189 sel 1 2 3 4 5, f 37;
#X obj 148 38 inlet;
#X obj 169 85 v rec-en;
#X msg 134 251 50 0 50;
#X msg 196 289 50 0 50;
#X msg 267 320 50 0 50;
#X msg 343 352 50 0 50;
#X msg 407 382 50 0 50;
#X obj 118 286 s led1-set;
#X obj 197 313 s led2-set;
#X obj 268 344 s led3-set;
#X obj 328 389 s led4-set;
#X obj 407 402 s led5-set;
#X obj 533 224 s ledall;
#X obj 151 127 t f b;
#X msg 534 203 1 1 1;
#X connect 0 0 3 0;
#X connect 0 1 4 0;
#X connect 0 2 5 0;
#X connect 0 3 6 0;
#X connect 0 4 7 0;
#X connect 1 0 2 0;
#X connect 2 0 14 0;
#X connect 3 0 8 0;
#X connect 4 0 9 0;
#X connect 5 0 10 0;
#X connect 6 0 11 0;
#X connect 7 0 12 0;
#X connect 14 0 0 0;
#X connect 14 1 15 0;
#X connect 15 0 13 0;
#X restore 103 206 pd stopped-leds;
#N canvas 416 281 921 459 bouncing-leds 0;
#X obj 265 59 inlet;
#X obj 522 201 s ledall;
#X obj 249 166 t b b b b b;
#X obj 156 325 s led1-set;
#X obj 226 325 s led2-set;
#X obj 294 324 s led3-set;
#X obj 364 324 s led4-set;
#X obj 432 323 s led5-set;
#X obj 152 237 v t1status;
#X obj 222 237 v t2status;
#X obj 290 236 v t3status;
#X obj 360 236 v t4status;
#X obj 428 235 v t5status;
#X msg 155 295 1 1 1;
#X msg 225 295 1 1 1;
#X msg 293 294 1 1 1;
#X msg 431 293 1 1 1;
#X msg 363 294 1 1 1;
#X obj 152 267 sel 0;
#X obj 290 266 sel 0;
#X obj 428 265 sel 0;
#X text 507 235 if there is no file it never started playing \, so show white;
#X msg 522 175 40 30 0;
#X obj 265 90 t b b, f 19;
#X obj 226 266 sel 0;
#X obj 360 266 sel 0;
#X connect 0 0 23 0;
#X connect 2 0 8 0;
#X connect 2 1 9 0;
#X connect 2 2 10 0;
#X connect 2 3 11 0;
#X connect 2 4 12 0;
#X connect 8 0 18 0;
#X connect 9 0 24 0;
#X connect 10 0 19 0;
#X connect 11 0 25 0;
#X connect 12 0 20 0;
#X connect 13 0 3 0;
#X connect 14 0 4 0;
#X connect 15 0 5 0;
#X connect 16 0 7 0;
#X connect 17 0 6 0;
#X connect 18 0 13 0;
#X connect 19 0 15 0;
#X connect 20 0 16 0;
#X connect 22 0 1 0;
#X connect 23 0 2 0;
#X connect 23 1 22 0;
#X connect 24 0 14 0;
#X connect 25 0 17 0;
#X restore 374 208 pd bouncing-leds;
#N canvas 128 142 991 503 test 0;
#X obj 376 314 s oscOut;
#X msg 377 293 send /leds \$1 \$2 \$3 \$4 \$5 \$6 \$7 \$8 \$9 \$10 \$11 \$12 \$13 \$14 \$15, f 65;
#X obj 385 254 pack 0 0 0 0 0 0 0 0 0 0 0 0 0 0 0;
#X obj 385 161 random 255;
#X obj 454 161 random 255;
#X obj 522 161 random 255;
#X obj 589 161 random 255;
#X obj 658 161 random 255;
#X obj 400 184 random 255;
#X obj 469 184 random 255;
#X obj 537 184 random 255;
#X obj 604 184 random 255;
#X obj 673 184 random 255;
#X obj 425 207 random 255;
#X obj 494 207 random 255;
#X obj 562 207 random 255;
#X obj 629 207 random 255;
#X obj 696 207 random 255;
#X obj 384 89 t b b b b b b b b b b b b b b b, f 53;
#X obj 368 43 metro 250;
#X connect 1 0 0 0;
#X connect 2 0 1 0;
#X connect 3 0 2 0;
#X connect 4 0 2 3;
#X connect 5 0 2 6;
#X connect 6 0 2 9;
#X connect 7 0 2 12;
#X connect 8 0 2 1;
#X connect 9 0 2 4;
#X connect 10 0 2 7;
#X connect 11 0 2 10;
#X connect 12 0 2 13;
#X connect 13 0 2 2;
#X connect 14 0 2 5;
#X connect 15 0 2 8;
#X connect 16 0 2 11;
#X connect 17 0 2 14;
#X connect 18 0 3 0;
#X connect 18 1 8 0;
#X connect 18 2 13 0;
#X connect 18 3 4 0;
#X connect 18 4 9 0;
#X connect 18 5 14 0;
#X connect 18 6 5 0;
#X connect 18 7 10 0;
#X connect 18 8 15 0;
#X connect 18 9 6 0;
#X connect 18 10 11 0;
#X connect 18 11 16 0;
#X connect 18 12 7 0;
#X connect 18 13 12 0;
#X connect 18 14 17 0;
#X restore 415 50 pd test;
#X obj 811 175 r led-flip;
#X obj 654 259 array get led1;
#X obj 811 196 t b b b b b;
#X obj 752 260 array get led2;
#X obj 854 259 array get led3;
#X obj 951 259 array get led4;
#X obj 1047 260 array get led5;
#X obj 653 286 unpack 0 0 0;
#X obj 752 286 unpack 0 0 0;
#X obj 854 285 unpack 0 0 0;
#X obj 951 285 unpack 0 0 0;
#X obj 1047 284 unpack 0 0 0;
#X obj 652 318 pack 0 0 0 0 0 0 0 0 0 0 0 0 0 0 0, f 78;
#X obj 650 363 s oscOut;
#X msg 651 342 send /leds \$1 \$2 \$3 \$4 \$5 \$6 \$7 \$8 \$9 \$10 \$11 \$12 \$13 \$14 \$15, f 65;
#X obj 186 76 t b b;
#X obj 143 108 s led-flip;
#N canvas 585 50 450 300 ledall 0;
#X obj 64 37 r ledall;
#X obj 64 65 t a a a a a, f 32;
#X obj 27 110 s led1-set;
#X obj 102 109 s led2-set;
#X obj 177 116 s led3-set;
#X obj 254 113 s led4-set;
#X obj 331 115 s led5-set;
#X connect 0 0 1 0;
#X connect 1 0 2 0;
#X connect 1 1 3 0;
#X connect 1 2 4 0;
#X connect 1 3 5 0;
#X connect 1 4 6 0;
#X restore 827 58 pd ledall;
#X obj 926 71 array set led1;
#X obj 926 48 r led1-set;
#X obj 927 90 r led2-set;
#X obj 927 113 array set led2;
#X obj 926 134 r led3-set;
#X obj 926 157 array set led3;
#X obj 1021 47 r led4-set;
#X obj 1021 70 array set led4;
#X obj 1024 89 r led5-set;
#X obj 1024 112 array set led5;
#X text 211 245 change led color when finished playing;
#N canvas 63 88 956 392 done-playing 0;
#X obj 41 255 s led1-set;
#X obj 20 220 s led-flip;
#X obj 34 188 t b b;
#X obj 147 207 s led-flip;
#X obj 161 175 t b b;
#X obj 257 208 s led-flip;
#X obj 271 176 t b b;
#X obj 372 207 s led-flip;
#X obj 386 175 t b b;
#X obj 488 207 s led-flip;
#X obj 502 174 t b b;
#X obj 168 242 s led2-set;
#X obj 278 243 s led3-set;
#X obj 393 242 s led4-set;
#X obj 509 242 s led5-set;
#X msg 91 220 1 1 1;
#X msg 218 207 1 1 1;
#X msg 328 208 1 1 1;
#X msg 443 207 1 1 1;
#X msg 559 207 1 1 1;
#X obj 36 59 r t1done-playing;
#X obj 167 62 r t2done-playing;
#X obj 276 64 r t3done-playing;
#X obj 393 63 r t4done-playing;
#X obj 508 63 r t5done-playing;
#X obj 92 91 r loop-en;
#X obj 39 136 spigot 0;
#X obj 87 114 == 0;
#X text 232 22 do this when looping is off;
#X obj 208 92 r loop-en;
#X obj 155 137 spigot 0;
#X obj 203 115 == 0;
#X obj 319 94 r loop-en;
#X obj 266 139 spigot 0;
#X obj 314 117 == 0;
#X obj 437 88 r loop-en;
#X obj 384 133 spigot 0;
#X obj 432 111 == 0;
#X obj 562 85 r loop-en;
#X obj 508 133 spigot 0;
#X obj 557 108 == 0;
#X connect 2 0 1 0;
#X connect 2 1 15 0;
#X connect 4 0 3 0;
#X connect 4 1 16 0;
#X connect 6 0 5 0;
#X connect 6 1 17 0;
#X connect 8 0 7 0;
#X connect 8 1 18 0;
#X connect 10 0 9 0;
#X connect 10 1 19 0;
#X connect 15 0 0 0;
#X connect 16 0 11 0;
#X connect 17 0 12 0;
#X connect 18 0 13 0;
#X connect 19 0 14 0;
#X connect 20 0 26 0;
#X connect 21 0 30 0;
#X connect 22 0 33 0;
#X connect 23 0 36 0;
#X connect 24 0 39 0;
#X connect 25 0 27 0;
#X connect 26 0 2 0;
#X connect 27 0 26 1;
#X connect 29 0 31 0;
#X connect 30 0 4 0;
#X connect 31 0 30 1;
#X connect 32 0 34 0;
#X connect 33 0 6 0;
#X connect 34 0 33 1;
#X connect 35 0 37 0;
#X connect 36 0 8 0;
#X connect 37 0 36 1;
#X connect 38 0 40 0;
#X connect 39 0 10 0;
#X connect 40 0 39 1;
#X restore 416 116 pd done-playing;
#N canvas 130 99 1118 503 running-leds 0;
#X obj 46 157 sel 1 2 3 4 5, f 39;
#X obj 148 28 inlet;
#X obj 148 53 v rec-en;
#X msg 20 286 30 0 0;
#X msg 89 328 30 0 0;
#X msg 160 357 30 0 0;
#X msg 236 389 30 0 0;
#X msg 300 419 30 0 0;
#X obj 721 185 s ledall;
#X obj 17 315 s led1-set;
#X obj 89 360 s led2-set;
#X obj 164 398 s led3-set;
#X obj 231 434 s led4-set;
#X obj 305 458 s led5-set;
#X obj 148 80 t f b b, f 19;
#X obj 466 152 t b b b b b;
#X obj 373 311 s led1-set;
#X obj 443 311 s led2-set;
#X obj 511 310 s led3-set;
#X obj 581 310 s led4-set;
#X obj 649 309 s led5-set;
#X obj 369 223 v t1status;
#X obj 439 223 v t2status;
#X obj 507 222 v t3status;
#X obj 577 222 v t4status;
#X obj 645 221 v t5status;
#X msg 372 281 1 1 1;
#X msg 442 281 1 1 1;
#X msg 510 280 1 1 1;
#X msg 648 279 1 1 1;
#X msg 580 280 1 1 1;
#X msg 722 164 0 40 0;
#X obj 369 253 sel 0;
#X obj 507 252 sel 0;
#X obj 645 251 sel 0;
#X text 734 223 if there is no file it never started playing \, so show white;
#X obj 443 254 sel 0;
#X obj 577 252 sel 0;
#X connect 0 0 3 0;
#X connect 0 1 4 0;
#X connect 0 2 5 0;
#X connect 0 3 6 0;
#X connect 0 4 7 0;
#X connect 1 0 2 0;
#X connect 2 0 14 0;
#X connect 3 0 9 0;
#X connect 4 0 10 0;
#X connect 5 0 11 0;
#X connect 6 0 12 0;
#X connect 7 0 13 0;
#X connect 14 0 0 0;
#X connect 14 1 15 0;
#X connect 14 2 31 0;
#X connect 15 0 21 0;
#X connect 15 1 22 0;
#X connect 15 2 23 0;
#X connect 15 3 24 0;
#X connect 15 4 25 0;
#X connect 21 0 32 0;
#X connect 22 0 36 0;
#X connect 23 0 33 0;
#X connect 24 0 37 0;
#X connect 25 0 34 0;
#X connect 26 0 16 0;
#X connect 27 0 17 0;
#X connect 28 0 18 0;
#X connect 29 0 20 0;
#X connect 30 0 19 0;
#X connect 31 0 8 0;
#X connect 32 0 26 0;
#X connect 33 0 28 0;
#X connect 34 0 29 0;
#X connect 36 0 27 0;
#X connect 37 0 30 0;
#X restore 246 207 pd running-leds;
#X obj 498 333 s SW_LED1;
#X obj 498 375 s SW_LED2;
#X obj 498 415 s SW_LED3;
#X obj 497 447 s SW_LED4;
#X obj 496 479 s SW_LED5;
#N canvas 108 108 686 562 vu 0;
#X obj 329 195 i;
#X obj 329 77 env~ 8192 4096;
#X obj 329 127 expr if($f1 >= 0 \, $f1 \, 0);
#X obj 329 103 - 60;
#X obj 329 150 / 40;
#X obj 136 202 sel 0 1;
#X obj 97 240 s reled, f 8;
#X obj 136 173 r key1, f 10;
#X obj 302 226 spigot;
#X obj 329 172 * 12;
#X obj 299 305 sel 0 1 2 3 4 5 6 7 8 9 10 11;
#N canvas 208 233 450 300 bar6 0;
#X obj 180 15 inlet;
#X msg 64 57 0 100 0;
#X msg 102 78 0 100 0;
#X msg 133 105 0 100 0;
#X msg 160 133 50 60 0;
#X msg 198 159 100 0 0;
#X obj 63 115 s led1-set;
#X obj 100 140 s led2-set;
#X obj 138 184 s led3-set;
#X obj 178 224 s led4-set;
#X obj 216 254 s led5-set;
#X connect 0 0 1 0;
#X connect 0 0 2 0;
#X connect 0 0 3 0;
#X connect 0 0 4 0;
#X connect 0 0 5 0;
#X connect 1 0 6 0;
#X connect 2 0 7 0;
#X connect 3 0 8 0;
#X connect 4 0 9 0;
#X connect 5 0 10 0;
#X restore 388 487 pd bar6;
#X f 8;
#N canvas 208 233 450 300 bar1 0;
#X obj 192 83 inlet;
#X msg 194 127 0 100 0;
#X obj 201 164 s led1-set;
#X connect 0 0 1 0;
#X connect 1 0 2 0;
#X restore 267 362 pd bar1;
#X f 8;
#N canvas 208 233 450 300 bar5 0;
#X obj 180 15 inlet;
#X msg 64 57 0 100 0;
#X msg 102 78 0 100 0;
#X msg 133 105 0 100 0;
#X msg 160 133 50 60 0;
#X msg 198 159 50 60 0;
#X obj 63 115 s led1-set;
#X obj 100 140 s led2-set;
#X obj 138 184 s led3-set;
#X obj 178 224 s led4-set;
#X obj 216 254 s led5-set;
#X connect 0 0 1 0;
#X connect 0 0 2 0;
#X connect 0 0 3 0;
#X connect 0 0 4 0;
#X connect 0 0 5 0;
#X connect 1 0 6 0;
#X connect 2 0 7 0;
#X connect 3 0 8 0;
#X connect 4 0 9 0;
#X connect 5 0 10 0;
#X restore 347 463 pd bar5;
#X f 8;
#N canvas 208 233 450 300 bar4 0;
#X obj 180 15 inlet;
#X msg 64 57 0 100 0;
#X msg 102 78 0 100 0;
#X msg 133 105 0 100 0;
#X msg 160 133 50 60 0;
#X obj 63 115 s led1-set;
#X obj 100 140 s led2-set;
#X obj 138 184 s led3-set;
#X obj 178 224 s led4-set;
#X connect 0 0 1 0;
#X connect 0 0 2 0;
#X connect 0 0 3 0;
#X connect 0 0 4 0;
#X connect 1 0 5 0;
#X connect 2 0 6 0;
#X connect 3 0 7 0;
#X connect 4 0 8 0;
#X restore 327 441 pd bar4;
#X f 8;
#N canvas 208 233 450 300 bar3 0;
#X obj 180 15 inlet;
#X msg 64 57 0 100 0;
#X msg 102 78 0 100 0;
#X msg 133 105 0 100 0;
#X obj 63 115 s led1-set;
#X obj 100 140 s led2-set;
#X obj 137 184 s led3-set;
#X connect 0 0 1 0;
#X connect 0 0 2 0;
#X connect 0 0 3 0;
#X connect 1 0 4 0;
#X connect 2 0 5 0;
#X connect 3 0 6 0;
#X restore 306 407 pd bar3;
#X f 8;
#N canvas 208 233 450 300 bar2 0;
#X obj 180 15 inlet;
#X msg 122 82 0 100 0;
#X msg 193 91 0 100 0;
#X obj 121 140 s led1-set;
#X obj 191 153 s led2-set;
#X connect 0 0 1 0;
#X connect 0 0 2 0;
#X connect 1 0 3 0;
#X connect 2 0 4 0;
#X restore 285 381 pd bar2;
#X f 8;
#X obj 504 338 s ledall;
#X msg 492 305 0 0 0;
#X obj 329 257 t b f b;
#X obj 225 306 s led-flip;
#X obj 323 46 r~ maininL;
#X connect 0 0 8 0;
#X connect 1 0 3 0;
#X connect 2 0 4 0;
#X connect 3 0 2 0;
#X connect 4 0 9 0;
#X connect 5 0 6 0;
#X connect 7 0 5 0;
#X connect 7 0 8 1;
#X connect 8 0 19 0;
#X connect 9 0 0 0;
#X connect 10 1 12 0;
#X connect 10 2 12 0;
#X connect 10 3 16 0;
#X connect 10 4 16 0;
#X connect 10 5 15 0;
#X connect 10 6 15 0;
#X connect 10 7 14 0;
#X connect 10 8 14 0;
#X connect 10 9 13 0;
#X connect 10 10 13 0;
#X connect 10 11 11 0;
#X connect 18 0 17 0;
#X connect 19 0 20 0;
#X connect 19 1 10 0;
#X connect 19 2 18 0;
#X connect 21 0 1 0;
#X restore 415 73 pd vu;
#X connect 0 0 27 0;
#X connect 7 0 9 0;
#X connect 7 1 42 0;
#X connect 7 2 10 0;
#X connect 8 0 7 0;
#X connect 12 0 14 0;
#X connect 13 0 19 0;
#X connect 13 0 43 0;
#X connect 14 0 13 0;
#X connect 14 1 15 0;
#X connect 14 2 16 0;
#X connect 14 3 17 0;
#X connect 14 4 18 0;
#X connect 15 0 20 0;
#X connect 15 0 44 0;
#X connect 16 0 21 0;
#X connect 16 0 45 0;
#X connect 17 0 22 0;
#X connect 17 0 46 0;
#X connect 18 0 23 0;
#X connect 18 0 47 0;
#X connect 19 0 24 0;
#X connect 19 1 24 1;
#X connect 19 2 24 2;
#X connect 20 0 24 3;
#X connect 20 1 24 4;
#X connect 20 2 24 5;
#X connect 21 0 24 6;
#X connect 21 1 24 7;
#X connect 21 2 24 8;
#X connect 22 0 24 9;
#X connect 22 1 24 10;
#X connect 22 2 24 11;
#X connect 23 0 24 12;
#X connect 23 1 24 13;
#X connect 23 2 24 14;
#X connect 24 0 26 0;
#X connect 26 0 25 0;
#X connect 27 0 28 0;
#X connect 27 1 8 0;
#X connect 31 0 30 0;
#X connect 32 0 33 0;
#X connect 34 0 35 0;
#X connect 36 0 37 0;
#X connect 38 0 39 0;
#X restore 141 59 pd leds;
#N canvas 316 45 851 695 GUI 1;
#X obj 352 34 bng 17 250 50 0 empty empty empty 0 -9 0 10 #fcfcfc #000000 #000000;
#X obj 637 34 bng 17 250 50 0 empty empty empty 0 -9 0 10 #fcfcfc #000000 #000000;
#X text 637 12 Power;
#X obj 184 153 bng 17 250 50 0 empty empty empty 0 -9 0 10 #fcfcfc #000000 #000000;
#X text 351 130 Start/Stop;
#X text 474 130 Prev song;
#X obj 474 153 bng 17 250 50 0 empty empty empty 0 -9 0 10 #fcfcfc #000000 #000000;
#X obj 540 153 bng 17 250 50 0 empty empty empty 0 -9 0 10 #fcfcfc #000000 #000000;
#X text 249 130 Loop;
#X text 184 130 Bounce;
#X text 89 130 VU;
#X obj 610 153 bng 17 250 50 0 empty empty empty 0 -9 0 10 #fcfcfc #000000 #000000;
#X text 610 130 Next song;
#X obj 93 250 vsl 17 145 0 1 0 0 empty empty empty 0 -9 0 10 #fcfcfc #000000 #000000 0 0;
#X obj 224 250 vsl 17 145 0 1 0 0 empty empty empty 0 -9 0 10 #fcfcfc #000000 #000000 0 0;
#X text 36 212 Status;
#X text 46 475 Rec;
#X obj 224 476 bng 17 250 50 0 empty empty empty 0 -9 0 10 #fcfcfc #000000 #000000;
#X obj 351 476 bng 17 250 50 0 empty empty empty 0 -9 0 10 #fcfcfc #000000 #000000;
#X obj 494 476 bng 17 250 50 0 empty empty empty 0 -9 0 10 #fcfcfc #000000 #000000;
#X obj 638 476 bng 17 250 50 0 empty empty empty 0 -9 0 10 #fcfcfc #000000 #000000;
#X floatatom 93 413 5 0 0 0 - - - 0;
#X obj 93 444 s SW_KNOB1;
#X floatatom 224 413 5 0 0 0 - - - 0;
#X obj 224 444 s SW_KNOB2;
#X obj 351 250 vsl 17 145 0 1 0 0 empty empty empty 0 -9 0 10 #fcfcfc #000000 #000000 0 0;
#X obj 494 250 vsl 17 145 0 1 0 0 empty empty empty 0 -9 0 10 #fcfcfc #000000 #000000 0 0;
#X floatatom 351 413 5 0 0 0 - - - 0;
#X floatatom 494 413 5 0 0 0 - - - 0;
#X obj 351 444 s SW_KNOB3;
#X obj 494 444 s SW_KNOB4;
#X obj 638 250 vsl 17 145 0 1 0 0 empty empty empty 0 -9 0 10 #fcfcfc #000000 #000000 0 0;
#X floatatom 638 413 5 0 0 0 - - - 0;
#X obj 638 444 s SW_KNOB5;
#X obj 93 508 s SW_KEY9;
#X obj 224 508 s SW_KEY10;
#X obj 351 508 s SW_KEY11;
#X obj 494 508 s SW_KEY12;
#X obj 638 508 s SW_KEY13;
#X obj 442 33 hsl 145 17 0 1 0 0 empty empty empty -2 -9 0 10 #fcfcfc #000000 #000000 0 0;
#X text 439 12 Volume;
#X floatatom 439 58 5 0 0 0 - - - 0;
#X obj 482 58 s SW_KNOB6;
#X obj 184 178 s SW_KEY2;
#X obj 249 178 s SW_KEY3;
#X obj 351 178 s SW_KEY5;
#X obj 474 178 s SW_KEY6;
#X obj 610 178 s SW_KEY8;
#X obj 89 209 cnv 20 20 20 empty LED1 empty 20 12 0 10 #020202 #fcfcfc 0;
#X obj 223 209 cnv 20 20 20 empty LED2 empty 20 12 0 10 #020202 #fcfcfc 0;
#X obj 350 209 cnv 20 20 20 empty LED3 empty 20 12 0 10 #020202 #fcfcfc 0;
#X obj 492 209 cnv 20 20 20 empty LED4 empty 20 12 0 10 #020202 #fcfcfc 0;
#X obj 636 209 cnv 20 20 20 empty LED5 empty 20 12 0 10 #020202 #fcfcfc 0;
#X obj 88 572 r SW_LED1;
#N canvas 54 54 450 300 sw-led-color 0;
#X obj 61 47 inlet;
#X obj 61 82 unpack f f f;
#X obj 73 160 rgb, f 13;
#X obj 59 117 t b f;
#X obj 74 205 outlet;
#X connect 0 0 1 0;
#X connect 1 0 3 0;
#X connect 1 1 2 2;
#X connect 1 2 2 3;
#X connect 2 0 4 0;
#X connect 3 0 2 0;
#X connect 3 1 2 1;
#X restore 88 604 pd sw-led-color;
#N canvas 54 54 450 300 sw-led-color 0;
#X obj 61 47 inlet;
#X obj 61 82 unpack f f f;
#X obj 73 160 rgb, f 13;
#X obj 59 117 t b f;
#X obj 74 205 outlet;
#X connect 0 0 1 0;
#X connect 1 0 3 0;
#X connect 1 1 2 2;
#X connect 1 2 2 3;
#X connect 2 0 4 0;
#X connect 3 0 2 0;
#X connect 3 1 2 1;
#X restore 221 604 pd sw-led-color;
#X obj 221 572 r SW_LED2;
#X msg 221 636 \; LED2 color \$1 \$2 \$3;
#X msg 88 636 \; LED1 color \$1 \$2 \$3;
#N canvas 54 54 450 300 sw-led-color 0;
#X obj 61 47 inlet;
#X obj 61 82 unpack f f f;
#X obj 73 160 rgb, f 13;
#X obj 59 117 t b f;
#X obj 74 205 outlet;
#X connect 0 0 1 0;
#X connect 1 0 3 0;
#X connect 1 1 2 2;
#X connect 1 2 2 3;
#X connect 2 0 4 0;
#X connect 3 0 2 0;
#X connect 3 1 2 1;
#X restore 356 604 pd sw-led-color;
#X obj 356 572 r SW_LED3;
#X msg 356 636 \; LED3 color \$1 \$2 \$3;
#N canvas 54 54 450 300 sw-led-color 0;
#X obj 61 47 inlet;
#X obj 61 82 unpack f f f;
#X obj 73 160 rgb, f 13;
#X obj 59 117 t b f;
#X obj 74 205 outlet;
#X connect 0 0 1 0;
#X connect 1 0 3 0;
#X connect 1 1 2 2;
#X connect 1 2 2 3;
#X connect 2 0 4 0;
#X connect 3 0 2 0;
#X connect 3 1 2 1;
#X restore 495 604 pd sw-led-color;
#X obj 495 572 r SW_LED4;
#X msg 495 636 \; LED4 color \$1 \$2 \$3;
#N canvas 54 54 450 300 sw-led-color 0;
#X obj 61 47 inlet;
#X obj 61 82 unpack f f f;
#X obj 73 160 rgb, f 13;
#X obj 59 117 t b f;
#X obj 74 205 outlet;
#X connect 0 0 1 0;
#X connect 1 0 3 0;
#X connect 1 1 2 2;
#X connect 1 2 2 3;
#X connect 2 0 4 0;
#X connect 3 0 2 0;
#X connect 3 1 2 1;
#X restore 635 604 pd sw-led-color;
#X obj 635 572 r SW_LED5;
#X msg 635 636 \; LED5 color \$1 \$2 \$3;
#X obj 637 84 s SW_QUIT;
#X msg 637 58 1;
#X obj 90 151 tgl 17 0 empty empty empty 0 -9 0 10 #fcfcfc #000000 #000000 0 1;
#X obj 92 479 bng 17 250 50 0 empty empty empty 0 -9 0 10 #fcfcfc #000000 #000000;
#X obj 351 149 bng 17 250 50 0 empty empty empty 0 -9 0 10 #fcfcfc #000000 #000000;
#X obj 89 178 s SW_KEY1;
#X obj 249 149 bng 17 250 50 0 empty empty empty 0 -9 0 10 #fcfcfc #000000 #000000;
#X symbolatom 85 47 38 0 0 0 - SW_STATUS - 0;
#X obj 352 58 s MONITOR;
#X obj 540 178 s NEW_SONG;
#X text 6 1 KUUTAMO version 0.1.dev \; Unofficial firmware for Critter & Guitari's 5 Moons, f 70;
#X connect 0 0 76 0;
#X connect 1 0 69 0;
#X connect 3 0 43 0;
#X connect 6 0 46 0;
#X connect 7 0 77 0;
#X connect 11 0 47 0;
#X connect 13 0 21 0;
#X connect 14 0 23 0;
#X connect 17 0 35 0;
#X connect 18 0 36 0;
#X connect 19 0 37 0;
#X connect 20 0 38 0;
#X connect 21 0 22 0;
#X connect 23 0 24 0;
#X connect 25 0 27 0;
#X connect 26 0 28 0;
#X connect 27 0 29 0;
#X connect 28 0 30 0;
#X connect 31 0 32 0;
#X connect 32 0 33 0;
#X connect 39 0 41 0;
#X connect 41 0 42 0;
#X connect 53 0 54 0;
#X connect 54 0 58 0;
#X connect 55 0 57 0;
#X connect 56 0 55 0;
#X connect 59 0 61 0;
#X connect 60 0 59 0;
#X connect 62 0 64 0;
#X connect 63 0 62 0;
#X connect 65 0 67 0;
#X connect 66 0 65 0;
#X connect 69 0 68 0;
#X connect 70 0 73 0;
#X connect 71 0 34 0;
#X connect 72 0 45 0;
#X connect 74 0 44 0;
#X restore 340 152 pd GUI;
#X obj 377 292 tgl 17 0 empty empty empty 0 -9 0 10 #fcfcfc #000000 #000000 0 1;
#X msg 377 324 \$1 5;
#X obj 377 233 r MONITOR;
#X text 19 -30 KUUTAMO version 0.1.dev \; Unofficial firmware for Critter & Guitari's 5 Moons, f 70;
#X connect 0 0 7 0;
#X connect 0 0 37 0;
#X connect 0 1 36 0;
#X connect 0 1 38 0;
#X connect 1 0 7 0;
#X connect 2 0 4 0;
#X connect 3 0 2 0;
#X connect 3 1 2 1;
#X connect 4 0 5 0;
#X connect 5 0 7 1;
#X connect 5 0 38 1;
#X connect 6 0 3 0;
#X connect 7 0 28 0;
#X connect 24 0 29 0;
#X connect 24 0 29 1;
#X connect 25 0 24 0;
#X connect 26 0 24 0;
#X connect 27 0 25 0;
#X connect 28 0 32 0;
#X connect 29 0 28 1;
#X connect 29 0 39 1;
#X connect 30 0 26 0;
#X connect 31 0 1 1;
#X connect 31 0 40 1;
#X connect 33 0 1 0;
#X connect 33 0 0 0;
#X connect 33 0 34 0;
#X connect 33 1 35 0;
#X connect 33 1 40 0;
#X connect 33 1 0 1;
#X connect 38 0 39 0;
#X connect 39 0 32 1;
#X connect 40 0 38 0;
#X connect 44 0 45 0;
#X connect 45 0 31 0;
#X connect 46 0 44 0;
#X coords 0 727 1 726 10 10 0;
