#N canvas 192 0 953 760 10;
#X declare -path lib;
#N canvas 174 61 819 572 track-it 0;
#X obj 331 461 outlet~;
#X obj 334 151 inlet~;
#X obj 213 290 track 1;
#X obj 267 290 track 2;
#X obj 320 289 track 3;
#X obj 375 290 track 4;
#X obj 430 289 track 5;
#X obj 503 270 r knob1;
#X obj 503 291 s t1_vol;
#X obj 563 270 r knob2;
#X obj 563 291 s t2_vol;
#X obj 629 270 r knob3;
#X obj 629 291 s t3_vol;
#X obj 689 270 r knob4;
#X obj 689 291 s t4_vol;
#X obj 748 270 r knob5;
#X obj 748 291 s t5_vol;
#X obj 442 154 inlet~;
#X obj 428 457 outlet~;
#X connect 1 0 2 0;
#X connect 1 0 6 0;
#X connect 1 0 3 0;
#X connect 1 0 5 0;
#X connect 1 0 4 0;
#X connect 2 0 0 0;
#X connect 2 1 18 0;
#X connect 3 0 0 0;
#X connect 3 1 18 0;
#X connect 4 0 0 0;
#X connect 4 1 18 0;
#X connect 5 0 0 0;
#X connect 5 1 18 0;
#X connect 6 0 0 0;
#X connect 6 1 18 0;
#X connect 7 0 8 0;
#X connect 9 0 10 0;
#X connect 11 0 12 0;
#X connect 13 0 14 0;
#X connect 15 0 16 0;
#X connect 17 0 2 1;
#X connect 17 0 6 1;
#X connect 17 0 3 1;
#X connect 17 0 4 1;
#X connect 17 0 5 1;
#X restore 170 438 pd track-it;
#X obj 377 287 sel 1;
#X obj 377 312 tgl 15 0 empty empty empty 17 7 0 10 #fcfcfc #000000 #000000 0 1;
#X obj 327 469 *~;
#X obj 377 261 r key4;
#X obj 445 375 *;
#X obj 445 348 t f f;
#X obj 445 403 sig~;
#X obj 445 428 lop~ 5;
#X obj 445 322 r knob6;
#X obj 328 532 *~;
#N canvas 395 36 844 578 track-select 0;
#X obj 400 528 s rec-en;
#X obj 368 497 t b f;
#X obj 346 531 s reled;
#X obj 454 85 r status;
#X obj 395 200 spigot 1;
#X obj 162 48 r key9;
#X obj 207 49 r key10;
#X obj 268 49 r key11;
#X obj 328 50 r key12;
#X obj 387 51 r key13;
#X obj 163 78 sel 1;
#X obj 215 79 sel 1;
#X obj 269 80 sel 1;
#X obj 327 81 sel 1;
#X obj 385 79 sel 1;
#X obj 412 292 v rec-en;
#X msg 162 109 1;
#X msg 207 109 2;
#X msg 269 110 3;
#X msg 328 107 4;
#X msg 385 112 5;
#X obj 390 319 ==;
#X obj 391 348 sel 0 1;
#X obj 385 266 t f b f;
#X obj 388 388 i;
#X msg 413 389 0;
#X text 490 107 enabled a track only when stopped;
#X obj 453 107 == 0;
#X connect 1 0 2 0;
#X connect 1 1 0 0;
#X connect 3 0 27 0;
#X connect 4 0 23 0;
#X connect 5 0 10 0;
#X connect 6 0 11 0;
#X connect 7 0 12 0;
#X connect 8 0 13 0;
#X connect 9 0 14 0;
#X connect 10 0 16 0;
#X connect 11 0 17 0;
#X connect 12 0 18 0;
#X connect 13 0 19 0;
#X connect 14 0 20 0;
#X connect 15 0 21 1;
#X connect 16 0 4 0;
#X connect 17 0 4 0;
#X connect 18 0 4 0;
#X connect 19 0 4 0;
#X connect 20 0 4 0;
#X connect 21 0 22 0;
#X connect 22 0 24 0;
#X connect 22 1 25 0;
#X connect 23 0 21 0;
#X connect 23 1 15 0;
#X connect 23 2 24 1;
#X connect 24 0 1 0;
#X connect 25 0 1 0;
#X connect 27 0 4 1;
#X restore 139 115 pd track-select;
#N canvas 78 50 1141 512 song-select 0;
#X obj 661 282 + 1;
#X obj 120 301 - 1;
#X obj 659 306 expr if($f1 > $f2 \, 1 \, $f1);
#X obj 122 326 expr if($f1 < 1 \, $f2 \, $f1);
#X obj 120 275 v cursong;
#X obj 221 276 v totalsongs;
#X obj 738 259 v totalsongs;
#X obj 825 53 print cursong;
#X obj 89 32 r key6;
#X obj 663 29 r key8;
#X obj 89 58 sel 1;
#X obj 663 55 sel 1;
#X obj 661 260 v cursong;
#X obj 661 337 s cursong;
#X obj 126 352 s cursong;
#X obj 825 10 r cursong;
#X obj 237 217 s stop;
#X obj 748 210 s stop;
#X obj 396 26 r key7;
#X obj 395 52 sel 1;
#X obj 394 221 + 1;
#X obj 469 413 i;
#X obj 475 199 s stop;
#X obj 394 199 v totalsongs;
#X obj 432 472 s cursong;
#X obj 432 444 t f f;
#X obj 495 472 s totalsongs;
#X obj 91 162 t b b b b;
#X obj 660 162 t b b b b;
#X obj 41 256 s play;
#X obj 43 215 delay 100;
#X obj 608 243 s play;
#X obj 610 202 delay 100;
#X obj 662 82 v status;
#X obj 662 104 sel 0 1 2;
#X obj 391 79 v status;
#X obj 391 101 sel 0 1 2;
#X obj 89 86 v status;
#X obj 89 108 sel 0 1 2;
#X obj 397 161 t b b;
#X text 731 85 only allow during play or stop \, not bounce down;
#X obj 465 289 s mute-dac;
#X obj 434 382 t b b;
#X obj 358 422 s unmute-dac;
#X obj 398 294 i;
#X obj 397 244 t b f f b;
#X obj 362 270 delay 10;
#X msg 387 319 symbol /sdcard/songs/\$1;
#X obj 388 353 mkdir;
#X connect 0 0 2 0;
#X connect 1 0 3 0;
#X connect 2 0 13 0;
#X connect 3 0 14 0;
#X connect 4 0 1 0;
#X connect 5 0 3 1;
#X connect 6 0 2 1;
#X connect 8 0 10 0;
#X connect 9 0 11 0;
#X connect 10 0 37 0;
#X connect 11 0 33 0;
#X connect 12 0 0 0;
#X connect 15 0 7 0;
#X connect 18 0 19 0;
#X connect 19 0 35 0;
#X connect 20 0 45 0;
#X connect 21 0 25 0;
#X connect 23 0 20 0;
#X connect 25 0 24 0;
#X connect 25 1 26 0;
#X connect 27 0 30 0;
#X connect 27 1 4 0;
#X connect 27 2 5 0;
#X connect 27 3 16 0;
#X connect 28 0 32 0;
#X connect 28 1 12 0;
#X connect 28 2 6 0;
#X connect 28 3 17 0;
#X connect 30 0 29 0;
#X connect 32 0 31 0;
#X connect 33 0 34 0;
#X connect 34 0 28 0;
#X connect 34 1 28 0;
#X connect 35 0 36 0;
#X connect 36 0 39 0;
#X connect 36 1 39 0;
#X connect 37 0 38 0;
#X connect 38 0 27 0;
#X connect 38 1 27 0;
#X connect 39 0 23 0;
#X connect 39 1 22 0;
#X connect 42 0 43 0;
#X connect 42 1 21 0;
#X connect 44 0 47 0;
#X connect 45 0 46 0;
#X connect 45 1 44 1;
#X connect 45 2 21 1;
#X connect 45 3 41 0;
#X connect 46 0 44 0;
#X connect 47 0 48 0;
#X connect 48 0 42 0;
#X restore 139 139 pd song-select;
#N canvas 47 383 703 328 init 0;
#X msg 316 171 1;
#N canvas 6 50 450 300 countsongs 0;
#X obj 111 173 f 0;
#X obj 111 146 t b;
#X obj 146 172 + 1;
#X obj 111 199 t f f;
#X obj 93 51 t b b b;
#X obj 93 225 f;
#X msg 153 146 1;
#X obj 91 253 outlet;
#X obj 90 15 inlet;
#X obj 19 184 print f;
#X msg 111 80 symbol /sdcard/songs/*;
#X obj 111 119 file glob;
#X connect 0 0 3 0;
#X connect 1 0 0 0;
#X connect 2 0 0 1;
#X connect 3 0 5 1;
#X connect 3 1 2 0;
#X connect 4 0 5 0;
#X connect 4 1 10 0;
#X connect 4 2 6 0;
#X connect 5 0 7 0;
#X connect 6 0 0 1;
#X connect 8 0 4 0;
#X connect 10 0 11 0;
#X connect 11 0 1 0;
#X connect 11 0 9 0;
#X restore 391 152 pd countsongs;
#X obj 478 195 print numer-songs;
#X obj 316 196 s cursong;
#X obj 168 19 loadbang;
#X obj 213 154 s rec-en;
#X msg 215 129 0, f 5;
#X obj 335 118 t b b;
#X obj 389 195 s totalsongs;
#X msg 194 205 0, f 5;
#X obj 192 230 s status;
#X obj 97 210 s reled;
#X msg 60 126 \; pd dsp 1;
#X obj 424 104 s osc-init;
#X obj 262 194 s busy;
#X msg 268 118 0;
#X obj 151 258 s loop-en;
#X msg 157 209 0;
#X obj 168 46 t b b b b b b b b b;
#X obj 54 78 s unmute-dac;
#X connect 0 0 3 0;
#X connect 1 0 2 0;
#X connect 1 0 8 0;
#X connect 4 0 18 0;
#X connect 6 0 5 0;
#X connect 7 0 0 0;
#X connect 7 1 1 0;
#X connect 9 0 10 0;
#X connect 15 0 14 0;
#X connect 17 0 16 0;
#X connect 18 0 19 0;
#X connect 18 1 12 0;
#X connect 18 2 11 0;
#X connect 18 3 17 0;
#X connect 18 4 9 0;
#X connect 18 5 6 0;
#X connect 18 6 15 0;
#X connect 18 7 7 0;
#X connect 18 8 13 0;
#X restore 141 50 pd init;
#X obj 21 50 declare -path lib;
#N canvas -99 29 1280 756 bounce-down 0;
#X obj 422 -11 sel 1;
#X obj 470 196 + 1;
#X obj 519 344 i;
#X obj 473 219 t f f;
#X obj 470 174 v totalsongs;
#X obj 422 -33 r key2;
#X msg 503 594 start;
#X obj 453 490 delay 15;
#X obj 597 630 print bounce;
#X obj 618 402 s totalsongs;
#X obj 46 430 delay 100;
#X obj 45 463 s play;
#X obj 87 385 v totalsongs;
#X obj 87 406 s cursong;
#X msg 572 599 open /sdcard/songs/\$1/1.wav;
#X obj 205 83 r stop-bounce;
#X obj 166 338 s status;
#X obj 130 363 s rec-en;
#X msg 166 308 0;
#X msg 130 313 0;
#X obj 203 307 s stop-all;
#X obj 147 217 t b b b b b b, f 18;
#N canvas 411 436 683 305 play-all 0;
#X obj 171 192 s t1play;
#X obj 259 190 s t2play;
#X obj 331 186 s t3play;
#X obj 419 187 s t4play;
#X obj 498 189 s t5play;
#X obj 211 17 inlet;
#X obj 215 100 t b b b b b, f 29;
#X connect 5 0 6 0;
#X connect 6 0 0 0;
#X connect 6 1 1 0;
#X connect 6 2 2 0;
#X connect 6 3 3 0;
#X connect 6 4 4 0;
#X restore 557 422 pd play-all;
#X obj 520 445 s reled;
#X obj 422 13 v status;
#X msg 557 152 2;
#X obj 557 175 s status;
#X obj 523 369 t b b b f f, f 16;
#X obj 437 588 line~;
#X msg 401 553 0 5;
#X msg 440 561 1 5;
#X obj 436 620 *~;
#X obj 431 655 *~;
#X obj 453 514 t b b;
#X msg 265 371 stop;
#X obj 476 127 t b b;
#X text 511 503 this delay ensures recorded track lines up with playing tracks, f 23;
#X obj 717 219 + 1;
#X obj 766 367 i;
#X obj 720 242 t f f;
#X obj 717 197 v totalsongs;
#X obj 865 425 s totalsongs;
#X obj 800 464 s reled;
#X msg 804 175 2;
#X obj 804 198 s status;
#X obj 422 35 sel 2 0 1;
#X text 178 61 bouncing \, stop it;
#X text 701 105 running \, stop any recordings then start bounce;
#X obj 770 392 t b b f f, f 16;
#X obj 894 178 s stop-recording-and-play;
#X obj 706 172 delay 110;
#X obj 749 329 t b b;
#X obj 828 356 s unmute-dac;
#X obj 509 312 t b;
#X obj 722 133 t b b b b;
#X obj 913 157 s mute-dac;
#X obj 142 163 delay 10;
#X obj 206 126 t b b;
#N canvas 38 86 1170 543 check-all-files-exist 0;
#X obj 270 32 inlet;
#X obj 430 352 outlet;
#X obj 254 99 t b b b b b, f 78;
#X obj 430 311 sel 1;
#X obj 272 62 t b b, f 107;
#X obj 914 103 s check-for-files;
#X obj 254 127 v t1file-exists;
#X obj 369 128 v t2file-exists;
#X obj 486 127 v t3file-exists;
#X obj 593 129 v t4file-exists;
#X obj 710 131 v t5file-exists;
#X obj 704 158 == 1;
#X obj 596 156 == 1;
#X obj 490 162 == 1;
#X obj 366 158 == 1;
#X obj 254 154 == 1;
#X obj 506 352 t b;
#X obj 506 373 print no-bounce;
#X obj 650 185 ||;
#X obj 568 220 ||;
#X obj 498 251 ||;
#X obj 430 281 ||;
#X connect 0 0 4 0;
#X connect 2 0 6 0;
#X connect 2 1 7 0;
#X connect 2 2 8 0;
#X connect 2 3 9 0;
#X connect 2 4 10 0;
#X connect 3 0 1 0;
#X connect 3 1 16 0;
#X connect 4 0 2 0;
#X connect 4 1 5 0;
#X connect 6 0 15 0;
#X connect 7 0 14 0;
#X connect 8 0 13 0;
#X connect 9 0 12 0;
#X connect 10 0 11 0;
#X connect 11 0 18 1;
#X connect 12 0 18 0;
#X connect 13 0 19 0;
#X connect 14 0 20 0;
#X connect 15 0 21 0;
#X connect 16 0 17 0;
#X connect 18 0 19 1;
#X connect 19 0 20 1;
#X connect 20 0 21 1;
#X connect 21 0 3 0;
#X restore 444 101 pd check-all-files-exist;
#X text 407 72 stopped \, start bounce \, but only if we have something to bounce, f 35;
#X obj 432 712 writesf~ 2;
#X obj 505 673 *~;
#X obj 163 508 r~ maininL;
#X obj 235 507 r~ mainoutL;
#X obj 550 654 r~ maininR;
#X obj 665 662 r~ mainoutR;
#X msg 467 251 symbol /sdcard/songs/\$1;
#X obj 459 283 mkdir;
#X msg 714 274 symbol /sdcard/songs/\$1;
#X obj 706 306 mkdir;
#X connect 0 0 24 0;
#X connect 1 0 3 0;
#X connect 2 0 27 0;
#X connect 3 0 66 0;
#X connect 3 1 2 1;
#X connect 4 0 1 0;
#X connect 5 0 0 0;
#X connect 6 0 60 0;
#X connect 7 0 33 0;
#X connect 10 0 11 0;
#X connect 12 0 13 0;
#X connect 14 0 8 0;
#X connect 14 0 60 0;
#X connect 15 0 57 0;
#X connect 18 0 16 0;
#X connect 19 0 17 0;
#X connect 21 0 10 0;
#X connect 21 1 12 0;
#X connect 21 2 19 0;
#X connect 21 3 18 0;
#X connect 21 4 20 0;
#X connect 21 5 34 0;
#X connect 24 0 45 0;
#X connect 25 0 26 0;
#X connect 27 0 7 0;
#X connect 27 1 23 0;
#X connect 27 2 22 0;
#X connect 27 3 14 0;
#X connect 27 4 9 0;
#X connect 28 0 31 1;
#X connect 28 0 31 0;
#X connect 29 0 28 0;
#X connect 30 0 28 0;
#X connect 31 0 32 1;
#X connect 31 0 61 0;
#X connect 32 0 60 0;
#X connect 33 0 30 0;
#X connect 33 1 6 0;
#X connect 34 0 60 0;
#X connect 35 0 4 0;
#X connect 35 1 25 0;
#X connect 37 0 39 0;
#X connect 38 0 48 0;
#X connect 39 0 68 0;
#X connect 39 1 38 1;
#X connect 40 0 37 0;
#X connect 43 0 44 0;
#X connect 45 0 57 0;
#X connect 45 1 58 0;
#X connect 45 2 54 0;
#X connect 48 0 7 0;
#X connect 48 1 42 0;
#X connect 48 2 14 0;
#X connect 48 3 41 0;
#X connect 50 0 40 0;
#X connect 51 0 38 0;
#X connect 51 1 52 0;
#X connect 53 0 2 0;
#X connect 54 0 50 0;
#X connect 54 1 43 0;
#X connect 54 2 49 0;
#X connect 54 3 55 0;
#X connect 56 0 21 0;
#X connect 57 0 56 0;
#X connect 57 1 29 0;
#X connect 58 0 35 0;
#X connect 61 0 60 1;
#X connect 62 0 32 0;
#X connect 63 0 32 0;
#X connect 64 0 61 1;
#X connect 65 0 61 1;
#X connect 66 0 67 0;
#X connect 67 0 53 0;
#X connect 68 0 69 0;
#X connect 69 0 51 0;
#X restore 139 162 pd bounce-down;
#N canvas 87 81 906 559 hot-record 0;
#X obj 498 39 r status;
#X obj 155 30 r key9;
#X obj 200 31 r key10;
#X obj 261 31 r key11;
#X obj 321 32 r key12;
#X obj 380 33 r key13;
#X obj 156 60 sel 1;
#X obj 208 61 sel 1;
#X obj 262 62 sel 1;
#X obj 320 63 sel 1;
#X obj 378 61 sel 1;
#X msg 155 91 1;
#X msg 200 91 2;
#X msg 262 92 3;
#X msg 321 89 4;
#X msg 378 94 5;
#X obj 392 181 spigot 0;
#X obj 477 452 s rec-en;
#X obj 394 265 v rec-en;
#X obj 397 292 > 0;
#X obj 397 314 sel 0 1;
#X obj 427 405 i;
#X obj 426 426 t b f, f 9;
#X obj 390 241 t b f;
#X text 454 316 if a track recording \, stop it;
#X text 293 426 otherwise start it;
#X obj 468 98 == 1;
#X obj 426 478 s stop-playing-and-record;
#X obj 425 352 s stop-recording-and-play;
#X obj 476 174 r loop-en;
#X obj 392 213 spigot 0;
#X text 481 220 only do it when looping;
#X text 508 99 if running;
#X connect 0 0 26 0;
#X connect 1 0 6 0;
#X connect 2 0 7 0;
#X connect 3 0 8 0;
#X connect 4 0 9 0;
#X connect 5 0 10 0;
#X connect 6 0 11 0;
#X connect 7 0 12 0;
#X connect 8 0 13 0;
#X connect 9 0 14 0;
#X connect 10 0 15 0;
#X connect 11 0 16 0;
#X connect 12 0 16 0;
#X connect 13 0 16 0;
#X connect 14 0 16 0;
#X connect 15 0 16 0;
#X connect 16 0 30 0;
#X connect 18 0 19 0;
#X connect 19 0 20 0;
#X connect 20 0 21 0;
#X connect 20 1 28 0;
#X connect 21 0 22 0;
#X connect 22 0 27 0;
#X connect 22 1 17 0;
#X connect 23 0 18 0;
#X connect 23 1 21 1;
#X connect 26 0 16 1;
#X connect 29 0 30 1;
#X connect 30 0 23 0;
#X restore 139 185 pd hot-record;
#X obj 342 39 v rec-en;
#X obj 342 65 v status;
#X obj 342 91 v totalsongs;
#X obj 342 116 v cursong;
#X obj 342 143 v loop-en;
#X text 402 37 0 = nothing enabled \, 1-5 tracks enabled;
#X text 407 142 0 = disabled \, 1 = disabled;
#X text 401 66 0 = stopped \, 1 = running \, 2 = overdubbing;
#X obj 1061 536 r loop-en;
#N canvas 121 146 745 487 loop-enable 0;
#X obj 149 44 r key3;
#X obj 73 320 s loop-en;
#X obj 149 73 sel 1;
#X obj 149 107 v status;
#X obj 149 129 sel 0 1 2;
#X obj 71 245 v loop-en;
#X obj 71 266 sel 0 1;
#X msg 68 289 1;
#X msg 102 290 0;
#X text 228 105 dont change while in bouncd mode;
#X text 252 147 if playing \, restart all bc we don't want ones that finished to look empty .;
#X obj 254 229 v loop-en;
#X obj 254 250 sel 0 1;
#X obj 245 299 t b b b;
#X obj 289 327 s stop;
#X obj 262 381 s loop-en;
#X msg 257 350 1;
#X obj 179 349 delay 100;
#X obj 179 380 s play;
#X msg 343 308 0;
#X obj 345 339 s loop-en;
#X text 328 227 if looping enable \, just disable. if disabled \, enable and restart all;
#X connect 0 0 2 0;
#X connect 2 0 3 0;
#X connect 3 0 4 0;
#X connect 4 0 5 0;
#X connect 4 1 11 0;
#X connect 5 0 6 0;
#X connect 6 0 7 0;
#X connect 6 1 8 0;
#X connect 7 0 1 0;
#X connect 8 0 1 0;
#X connect 11 0 12 0;
#X connect 12 0 13 0;
#X connect 12 1 19 0;
#X connect 13 0 17 0;
#X connect 13 1 16 0;
#X connect 13 2 14 0;
#X connect 16 0 15 0;
#X connect 17 0 18 0;
#X connect 19 0 20 0;
#X restore 139 207 pd loop-enable;
#N canvas 0 0 1284 760 start-stop 0;
#X obj 131 64 sel 1;
#X obj 130 34 r key5, f 10;
#X obj 133 98 v status;
#X obj 130 335 s status;
#X obj 228 284 s reled;
#X obj 39 337 s reled;
#X obj 48 91 r stop;
#X obj 94 360 s rec-en;
#X obj 276 78 r play;
#X obj 367 268 s status;
#X msg 366 246 1;
#X msg 130 305 0;
#X msg 94 310 0;
#X obj 102 220 t b b b b;
#X obj 155 251 s stop-all;
#X obj 133 125 sel 1 2 0;
#X obj 132 189 s stop-bounce;
#X obj 446 246 s start-all;
#X obj 583 73 r t1done-playing;
#X obj 641 93 r loop-en;
#X obj 589 141 spigot 0;
#X obj 640 115 == 0;
#X text 704 19 when all tracks done \, stop it. only do this when loop mode off;
#X obj 765 91 r loop-en;
#X obj 713 139 spigot 0;
#X obj 764 113 == 0;
#X obj 886 91 r loop-en;
#X obj 834 139 spigot 0;
#X obj 885 113 == 0;
#X obj 1008 89 r loop-en;
#X obj 956 137 spigot 0;
#X obj 1007 111 == 0;
#X obj 1129 85 r loop-en;
#X obj 1077 133 spigot 0;
#X obj 1128 107 == 0;
#X obj 707 71 r t2done-playing;
#X obj 828 71 r t3done-playing;
#X obj 950 69 r t4done-playing;
#X obj 1071 65 r t5done-playing;
#X obj 589 383 t b b b b b, f 78;
#X obj 589 411 v t1status;
#X obj 704 412 v t2status;
#X obj 821 411 v t3status;
#X obj 928 413 v t4status;
#X obj 1045 415 v t5status;
#X obj 1039 442 == 0;
#X obj 931 440 == 0;
#X obj 701 442 == 0;
#X obj 825 446 == 0;
#X obj 589 438 == 0;
#X obj 765 595 sel 1;
#X obj 762 696 s stop;
#X obj 985 469 &&;
#X obj 903 504 &&;
#X obj 833 535 &&;
#X obj 765 565 &&;
#X text 969 525 if all are done stop all;
#X obj 233 201 t b b b b;
#X obj 667 642 print auto-stop;
#X obj 776 637 v status;
#X obj 776 664 sel 1 2 0;
#X obj 810 696 s stop-bounce;
#X text 308 196 start but stop if nothing started (no files);
#X obj 311 298 s check-and-stop;
#X obj 712 343 r check-and-stop;
#X text 823 340 if none are running \, send stop signals;
#X connect 0 0 2 0;
#X connect 1 0 0 0;
#X connect 2 0 15 0;
#X connect 6 0 13 0;
#X connect 8 0 57 0;
#X connect 10 0 9 0;
#X connect 11 0 3 0;
#X connect 12 0 7 0;
#X connect 13 0 5 0;
#X connect 13 1 12 0;
#X connect 13 2 11 0;
#X connect 13 3 14 0;
#X connect 15 0 13 0;
#X connect 15 1 16 0;
#X connect 15 2 57 0;
#X connect 18 0 20 0;
#X connect 19 0 21 0;
#X connect 20 0 39 0;
#X connect 21 0 20 1;
#X connect 23 0 25 0;
#X connect 24 0 39 0;
#X connect 25 0 24 1;
#X connect 26 0 28 0;
#X connect 27 0 39 0;
#X connect 28 0 27 1;
#X connect 29 0 31 0;
#X connect 30 0 39 0;
#X connect 31 0 30 1;
#X connect 32 0 34 0;
#X connect 33 0 39 0;
#X connect 34 0 33 1;
#X connect 35 0 24 0;
#X connect 36 0 27 0;
#X connect 37 0 30 0;
#X connect 38 0 33 0;
#X connect 39 0 40 0;
#X connect 39 1 41 0;
#X connect 39 2 42 0;
#X connect 39 3 43 0;
#X connect 39 4 44 0;
#X connect 40 0 49 0;
#X connect 41 0 47 0;
#X connect 42 0 48 0;
#X connect 43 0 46 0;
#X connect 44 0 45 0;
#X connect 45 0 52 1;
#X connect 46 0 52 0;
#X connect 47 0 54 0;
#X connect 48 0 53 0;
#X connect 49 0 55 0;
#X connect 50 0 58 0;
#X connect 50 0 59 0;
#X connect 52 0 53 1;
#X connect 53 0 54 1;
#X connect 54 0 55 1;
#X connect 55 0 50 0;
#X connect 57 0 4 0;
#X connect 57 1 63 0;
#X connect 57 2 10 0;
#X connect 57 3 17 0;
#X connect 59 0 60 0;
#X connect 60 0 51 0;
#X connect 60 1 61 0;
#X connect 64 0 39 0;
#X restore 139 94 pd start-stop;
#X obj 552 534 line~;
#X msg 552 501 0 5;
#X msg 627 501 1 5;
#X obj 552 465 r mute-dac;
#X obj 328 649 *~;
#X obj 552 580 *~;
#X obj 627 465 r unmute-dac;
#X obj 377 382 line~;
#X msg 377 349 \$1 5;
#X text 427 262 monitor;
#X obj 328 697 dac~ 1 2;
#X obj 167 257 adc~ 1 2;
#X obj 81 304 s~ maininL;
#X obj 265 304 s~ maininR;
#X obj 236 566 s~ mainoutR;
#X obj 173 593 s~ mainoutL;
#X obj 365 532 *~;
#X obj 365 649 *~;
#X obj 364 469 *~;
#X text 19 3 KUUTAMO Unofficial firmware for Critter & Cuitari's 5 Moons;
#N canvas 273 20 849 705 sw-interface 1;
#X obj 352 34 bng 17 250 50 0 empty empty empty 0 -9 0 10 #fcfcfc #000000 #000000;
#X obj 637 34 bng 17 250 50 0 empty empty empty 0 -9 0 10 #fcfcfc #000000 #000000;
#X text 637 12 Power;
#X obj 89 153 bng 17 250 50 0 empty empty empty 0 -9 0 10 #fcfcfc #000000 #000000;
#X obj 184 153 bng 17 250 50 0 empty empty empty 0 -9 0 10 #fcfcfc #000000 #000000;
#X obj 249 153 bng 17 250 50 0 empty empty empty 0 -9 0 10 #fcfcfc #000000 #000000;
#X obj 351 153 bng 17 250 50 0 empty empty empty 0 -9 0 10 #fcfcfc #000000 #000000;
#X text 351 130 Start/Stop;
#X text 474 130 Prev song;
#X obj 474 153 bng 17 250 50 0 empty empty empty 0 -9 0 10 #fcfcfc #000000 #000000;
#X obj 540 153 bng 17 250 50 0 empty empty empty 0 -9 0 10 #fcfcfc #000000 #000000;
#X text 352 12 Monitor;
#X text 249 130 Loop;
#X text 184 130 Bounce;
#X text 89 130 VU;
#X obj 610 153 bng 17 250 50 0 empty empty empty 0 -9 0 10 #fcfcfc #000000 #000000;
#X text 610 130 Next song;
#X text 540 130 New song;
#X obj 93 250 vsl 17 145 0 1 0 0 empty empty empty 0 -9 0 10 #fcfcfc #000000 #000000 0 1;
#X obj 224 250 vsl 17 145 0 1 0 0 empty empty empty 0 -9 0 10 #fcfcfc #000000 #000000 0 1;
#X obj 93 476 bng 17 250 50 0 empty empty empty 0 -9 0 10 #fcfcfc #000000 #000000;
#X text 36 212 Status;
#X text 46 475 Rec;
#X obj 224 476 bng 17 250 50 0 empty empty empty 0 -9 0 10 #fcfcfc #000000 #000000;
#X obj 351 476 bng 17 250 50 0 empty empty empty 0 -9 0 10 #fcfcfc #000000 #000000;
#X obj 494 476 bng 17 250 50 0 empty empty empty 0 -9 0 10 #fcfcfc #000000 #000000;
#X obj 638 476 bng 17 250 50 0 empty empty empty 0 -9 0 10 #fcfcfc #000000 #000000;
#X floatatom 93 413 5 0 0 0 - - - 0;
#X obj 93 444 s SW_KNOB1;
#X floatatom 224 413 5 0 0 0 - - - 0;
#X obj 224 444 s SW_KNOB2;
#X obj 351 250 vsl 17 145 0 1 0 0 empty empty empty 0 -9 0 10 #fcfcfc #000000 #000000 0 1;
#X obj 494 250 vsl 17 145 0 1 0 0 empty empty empty 0 -9 0 10 #fcfcfc #000000 #000000 0 1;
#X floatatom 351 413 5 0 0 0 - - - 0;
#X floatatom 494 413 5 0 0 0 - - - 0;
#X obj 351 444 s SW_KNOB3;
#X obj 494 444 s SW_KNOB4;
#X obj 638 250 vsl 17 145 0 1 0 0 empty empty empty 0 -9 0 10 #fcfcfc #000000 #000000 0 1;
#X floatatom 638 413 5 0 0 0 - - - 0;
#X obj 638 444 s SW_KNOB5;
#X obj 93 508 s SW_KEY9;
#X obj 224 508 s SW_KEY10;
#X obj 351 508 s SW_KEY11;
#X obj 494 508 s SW_KEY12;
#X obj 638 508 s SW_KEY13;
#X obj 442 34 hsl 145 17 0 127 0 0 empty empty empty -2 -9 0 10 #fcfcfc #000000 #000000 0 1;
#X text 439 12 Volume;
#X floatatom 439 58 5 0 0 0 - - - 0;
#X obj 482 58 s SW_KNOB6;
#X obj 352 58 s SW_KEY4;
#X obj 184 178 s SW_KEY2;
#X obj 249 178 s SW_KEY3;
#X obj 351 178 s SW_KEY5;
#X obj 474 178 s SW_KEY6;
#X obj 610 178 s SW_KEY8;
#X obj 637 58 s SW_QUIT;
#X obj 540 178 s SW_KEY7;
#X obj 89 178 s SW_KEY1;
#X obj 89 209 cnv 20 20 20 empty LED1 empty 20 12 0 10 #00ff00 #fcfcfc 0;
#X obj 223 209 cnv 20 20 20 empty LED2 empty 20 12 0 10 #00ff00 #fcfcfc 0;
#X obj 350 209 cnv 20 20 20 empty LED3 empty 20 12 0 10 #00ff00 #fcfcfc 0;
#X obj 492 209 cnv 20 20 20 empty LED4 empty 20 12 0 10 #00ff00 #fcfcfc 0;
#X obj 636 209 cnv 20 20 20 empty LED5 empty 20 12 0 10 #00ff00 #fcfcfc 0;
#X obj 88 572 r SW_LED1;
#N canvas 54 54 450 300 sw-led-color 0;
#X obj 61 47 inlet;
#X obj 61 82 unpack f f f;
#X obj 73 160 rgb, f 13;
#X obj 59 117 t b f;
#X obj 74 205 outlet;
#X connect 0 0 1 0;
#X connect 1 0 3 0;
#X connect 1 1 2 2;
#X connect 1 2 2 3;
#X connect 2 0 4 0;
#X connect 3 0 2 0;
#X connect 3 1 2 1;
#X restore 88 604 pd sw-led-color;
#N canvas 54 54 450 300 sw-led-color 0;
#X obj 61 47 inlet;
#X obj 61 82 unpack f f f;
#X obj 73 160 rgb, f 13;
#X obj 59 117 t b f;
#X obj 74 205 outlet;
#X connect 0 0 1 0;
#X connect 1 0 3 0;
#X connect 1 1 2 2;
#X connect 1 2 2 3;
#X connect 2 0 4 0;
#X connect 3 0 2 0;
#X connect 3 1 2 1;
#X restore 221 604 pd sw-led-color;
#X obj 221 572 r SW_LED2;
#X msg 221 636 \; LED2 color \$1 \$2 \$3;
#X msg 88 636 \; LED1 color \$1 \$2 \$3;
#N canvas 54 54 450 300 sw-led-color 0;
#X obj 61 47 inlet;
#X obj 61 82 unpack f f f;
#X obj 73 160 rgb, f 13;
#X obj 59 117 t b f;
#X obj 74 205 outlet;
#X connect 0 0 1 0;
#X connect 1 0 3 0;
#X connect 1 1 2 2;
#X connect 1 2 2 3;
#X connect 2 0 4 0;
#X connect 3 0 2 0;
#X connect 3 1 2 1;
#X restore 356 604 pd sw-led-color;
#X obj 356 572 r SW_LED3;
#X msg 356 636 \; LED3 color \$1 \$2 \$3;
#N canvas 54 54 450 300 sw-led-color 0;
#X obj 61 47 inlet;
#X obj 61 82 unpack f f f;
#X obj 73 160 rgb, f 13;
#X obj 59 117 t b f;
#X obj 74 205 outlet;
#X connect 0 0 1 0;
#X connect 1 0 3 0;
#X connect 1 1 2 2;
#X connect 1 2 2 3;
#X connect 2 0 4 0;
#X connect 3 0 2 0;
#X connect 3 1 2 1;
#X restore 495 604 pd sw-led-color;
#X obj 495 572 r SW_LED4;
#X msg 495 636 \; LED4 color \$1 \$2 \$3;
#N canvas 54 54 450 300 sw-led-color 0;
#X obj 61 47 inlet;
#X obj 61 82 unpack f f f;
#X obj 73 160 rgb, f 13;
#X obj 59 117 t b f;
#X obj 74 205 outlet;
#X connect 0 0 1 0;
#X connect 1 0 3 0;
#X connect 1 1 2 2;
#X connect 1 2 2 3;
#X connect 2 0 4 0;
#X connect 3 0 2 0;
#X connect 3 1 2 1;
#X restore 635 604 pd sw-led-color;
#X obj 635 572 r SW_LED5;
#X msg 635 636 \; LED5 color \$1 \$2 \$3;
#X connect 0 0 49 0;
#X connect 1 0 55 0;
#X connect 3 0 57 0;
#X connect 4 0 50 0;
#X connect 5 0 51 0;
#X connect 6 0 52 0;
#X connect 9 0 53 0;
#X connect 10 0 56 0;
#X connect 15 0 54 0;
#X connect 18 0 27 0;
#X connect 19 0 29 0;
#X connect 20 0 40 0;
#X connect 23 0 41 0;
#X connect 24 0 42 0;
#X connect 25 0 43 0;
#X connect 26 0 44 0;
#X connect 27 0 28 0;
#X connect 29 0 30 0;
#X connect 31 0 33 0;
#X connect 32 0 34 0;
#X connect 33 0 35 0;
#X connect 34 0 36 0;
#X connect 37 0 38 0;
#X connect 38 0 39 0;
#X connect 45 0 47 0;
#X connect 47 0 48 0;
#X connect 63 0 64 0;
#X connect 64 0 68 0;
#X connect 65 0 67 0;
#X connect 66 0 65 0;
#X connect 69 0 71 0;
#X connect 70 0 69 0;
#X connect 72 0 74 0;
#X connect 73 0 72 0;
#X connect 75 0 77 0;
#X connect 76 0 75 0;
#X restore 259 192 pd sw-interface;
#X connect 0 0 10 0;
#X connect 0 0 43 0;
#X connect 0 1 42 0;
#X connect 0 1 44 0;
#X connect 1 0 2 0;
#X connect 2 0 36 0;
#X connect 3 0 10 0;
#X connect 4 0 1 0;
#X connect 5 0 7 0;
#X connect 6 0 5 0;
#X connect 6 1 5 1;
#X connect 7 0 8 0;
#X connect 8 0 10 1;
#X connect 8 0 44 1;
#X connect 9 0 6 0;
#X connect 10 0 32 0;
#X connect 28 0 33 0;
#X connect 28 0 33 1;
#X connect 29 0 28 0;
#X connect 30 0 28 0;
#X connect 31 0 29 0;
#X connect 32 0 38 0;
#X connect 33 0 32 1;
#X connect 33 0 45 1;
#X connect 34 0 30 0;
#X connect 35 0 3 1;
#X connect 35 0 46 1;
#X connect 36 0 35 0;
#X connect 39 0 3 0;
#X connect 39 0 0 0;
#X connect 39 0 40 0;
#X connect 39 1 41 0;
#X connect 39 1 46 0;
#X connect 39 1 0 1;
#X connect 44 0 45 0;
#X connect 45 0 38 1;
#X connect 46 0 44 0;
#X coords 0 -1 1 1 10 10 1 100 100;
